<?xml version="1.0" encoding="utf-8"?>
<!-- Svg Vector Icons : http://www.onlinewebfonts.com/icon -->
<!DOCTYPE svg PUBLIC "-//W3C//DTD SVG 1.1//EN" "http://www.w3.org/Graphics/SVG/1.1/DTD/svg11.dtd">
<svg version="1.1" xmlns="http://www.w3.org/2000/svg" xmlns:xlink="http://www.w3.org/1999/xlink" x="0px" y="0px" viewBox="0 0 256 256" enable-background="new 0 0 256 256" xml:space="preserve">
<metadata> Svg Vector Icons : http://www.onlinewebfonts.com/icon </metadata>
<g><g><path fill="" d="M231.3,10c4.2,0,7.7,1.4,10.5,4.2c2.8,2.8,4.2,6.3,4.2,10.5c0,4.1-1.4,7.6-4.3,10.5L148.9,128l92.9,92.8c2.8,2.8,4.3,6.3,4.3,10.5c0,4.2-1.4,7.7-4.2,10.5c-2.8,2.8-6.3,4.2-10.5,4.2c-4.1,0-7.6-1.4-10.5-4.3L128,148.9l-92.8,92.9c-2.8,2.8-6.3,4.3-10.5,4.3c-4.2,0-7.7-1.4-10.5-4.2c-2.8-2.8-4.2-6.3-4.2-10.5c0-4.1,1.4-7.6,4.3-10.5l92.9-92.8L14.3,35.2c-2.8-2.8-4.3-6.3-4.3-10.5c0-4.2,1.4-7.7,4.2-10.5C17,11.4,20.5,10,24.7,10c4.1,0,7.6,1.4,10.5,4.3l92.8,92.9l92.8-92.9C223.6,11.4,227.1,10,231.3,10L231.3,10z"/></g></g>
</svg>