<?xml version="1.0" encoding="utf-8"?>
<!-- Svg Vector Icons : http://www.onlinewebfonts.com/icon -->
<!DOCTYPE svg PUBLIC "-//W3C//DTD SVG 1.1//EN" "http://www.w3.org/Graphics/SVG/1.1/DTD/svg11.dtd">
<svg version="1.1" xmlns="http://www.w3.org/2000/svg" xmlns:xlink="http://www.w3.org/1999/xlink" x="0px" y="0px" viewBox="0 0 256 256" enable-background="new 0 0 256 256" xml:space="preserve">
<metadata> Svg Vector Icons : http://www.onlinewebfonts.com/icon </metadata>
<g><g><g><path fill="#000000" d="M121.9,10.1c-16.1,1.9-29.7,7.8-41.5,18C73.4,34,66.6,43,62.6,51.5c-1.9,3.9-2.3,4.5-3.3,4.5c-1.6,0-6.8,1.9-9.5,3.5c-2.9,1.7-7.4,6.2-9.1,9.1c-4.8,8.1-5.1,16.5-1.1,24.9c4.5,9.4,14.2,15.4,24.8,15.4h2.8l0-11.3c0-8.9,0.1-10.6,0.5-8c3.1,24.5,21.8,45.5,46.1,51.7c2,0.5,5,1,6.9,1.2c3.9,0.3,3.3,0.9-1.6,1.3c-12.4,1.1-25.8,6.1-37.9,14.1c-7.2,4.8-17.2,14.9-22,22c-8.2,12.4-12.8,24.6-14.3,38.9c-0.3,2.6-0.5,9.7-0.5,15.9V246h83.8h83.8v-11.2c0-6.2-0.2-13.3-0.5-15.9c-3.2-29.2-20.4-53.9-47-67.2c-8.2-4.1-18.7-7.2-27.2-8c-4.9-0.4-5.5-1-1.6-1.3c9.1-0.9,19.9-5.3,28.7-11.7c1.6-1.1,4.7-4,7-6.3l4.2-4.2h5.4c3,0,6.3-0.2,7.4-0.6c3.8-1.1,8.4-6.9,8.4-10.5c0-0.4,0.9-0.9,2.4-1.3c8.9-2.3,16.2-9.3,19.3-18.6c1.2-3.6,1.2-10.7,0-14.3c-2.1-6.4-6.9-12.5-12-15.5c-2.8-1.6-8-3.6-9.5-3.6c-1,0-1.5-0.7-3.8-5.2c-10.4-20.9-30-35.8-52.4-39.8C136.4,10.3,125.1,9.7,121.9,10.1z M141.6,18.8c12.3,2.7,22.4,8,31.3,16.7c5.7,5.5,9.7,11,13.3,18.4l2.8,5.7l0,9.3c0,7.8-0.1,8.7-0.5,6c-2.4-18.7-14-35.9-30.9-45.5c-27.4-15.7-61.9-7.4-80,19.3c-5.5,8.1-9.1,18-10.1,27.9c-0.1,0.9-0.2-2.4-0.2-7.4c-0.1-9.1-0.1-9.1,1.3-12.4c3.1-7.3,7.3-13.5,12.9-19.4c10-10.4,22-16.7,36.5-19.1C123.7,17.2,135.9,17.5,141.6,18.8z M140,30.1c20.1,4.4,35.9,20.4,40.3,40.7c1.2,5.6,1.2,17.2,0,22.9c-1,4.9-3.6,11.5-6.1,15.8l-1.9,3.2h-13h-13l-0.7-1.2c-1.1-2.1-5-5.2-7.2-5.9c-1.4-0.4-5.1-0.5-11.3-0.4c-10.3,0.1-11.3,0.4-14.4,3.6c-3.1,3.1-4.2,6.7-3.1,10.5c0.8,3,5,7.3,7.9,8.1c2.7,0.8,18.7,0.8,21.3,0c1.9-0.6,6.2-4.3,7.3-6.2c0.4-0.8,1.2-0.8,10.1-0.7l9.7,0.1l-3.7,3c-6.7,5.4-14.7,9.2-22.7,11c-5.6,1.2-17.2,1.2-22.9,0c-20.5-4.4-36.4-20.3-40.8-40.8c-1.2-5.6-1.2-17.2,0-22.9c4.6-21.2,21.4-37.4,42.8-41.2C123.6,28.7,135,29,140,30.1z M59.5,82.3v18.6l-1.4-0.2c-7.9-1.6-13.9-9.6-13.9-18.4c0-8,4.5-14.9,11.6-17.8C59.8,62.9,59.5,61.3,59.5,82.3z M201.7,65.1c9.1,4.4,12.8,16.2,8.2,26.1c-2,4.2-7.4,8.6-11.9,9.5l-1.4,0.2V82.2V63.5l1.5,0.3C199,64,200.6,64.5,201.7,65.1z M189,98.6c0,14.5,0.2,14-5.2,14h-3.2l1.8-3.5c3.3-6.2,6.2-16.2,6.2-21.1c0-0.9,0.1-1.6,0.2-1.6S189,92,189,98.6z M138.5,113.6c0.6,0.6,1,1.6,1,2.9s-0.3,2.2-1,2.9c-0.9,0.9-1.6,1-10.5,1c-8.9,0-9.6,0-10.5-1c-0.6-0.6-1-1.6-1-2.9s0.3-2.2,1-2.9c0.9-0.9,1.6-1,10.5-1C137,112.7,137.6,112.7,138.5,113.6z M141.9,152c2.2,0.4,5.7,1.2,7.6,1.8c3.6,1,11.3,4,12,4.6c0.4,0.4-25.5,56.3-31.9,68.8l-1.5,2.9l-0.7-1.7c-0.4-0.9-7.9-16.8-16.8-35.2c-8.8-18.5-16.1-33.8-16.3-34.1c-0.7-1.7,15.2-6.7,25.6-8C123.6,150.6,138,151.2,141.9,152z M104,196.6c8.3,17.5,15,31.9,15,31.9c-0.2,0.2-38.9-21.9-39.6-22.5c-0.2-0.3,3.6-17.7,8.9-40.5c0.1-0.6,0.3-1,0.4-1C88.8,164.7,95.7,179.1,104,196.6z M172.3,185.3c2.6,11.2,4.6,20.6,4.4,20.8c-0.6,0.6-38.8,22.3-38.9,22.1c-0.1-0.1,3.5-8,8-17.5c4.5-9.5,11.2-23.8,14.9-31.7c3.7-7.9,6.7-14.3,6.8-14.2C167.5,164.9,169.7,174.1,172.3,185.3z M75.3,188.9c-2.6,11.4-4.6,20.8-4.4,21c0.2,0.2,11.2,6.6,24.6,14.2c13.3,7.6,24.4,14,24.5,14.1c0.1,0.1-15.2,0.2-34,0.2H51.8l0.2-10.6c0.3-11.7,1.1-17,3.8-25.3c2-6,6.5-14.9,10.3-20.3c3.3-4.6,13.5-15.3,13.8-14.4C79.9,168.1,77.9,177.6,75.3,188.9z M185.3,176.2c8.9,10.1,14.9,22.3,17.6,35.9c0.8,4,1.1,7.4,1.3,15.7l0.2,10.6h-34.1c-18.8,0-34.1-0.1-34-0.2c0.1-0.1,11.1-6.5,24.5-14.1c13.4-7.6,24.4-14,24.6-14.2s-1.8-9.6-4.4-20.8c-2.6-11.3-4.8-20.8-4.8-21.1C176.2,167.1,181.4,171.9,185.3,176.2z"/></g></g></g>
</svg>