<?xml version="1.0" encoding="utf-8"?>
<!-- Svg Vector Icons : http://www.onlinewebfonts.com/icon -->
<!DOCTYPE svg PUBLIC "-//W3C//DTD SVG 1.1//EN" "http://www.w3.org/Graphics/SVG/1.1/DTD/svg11.dtd">
<svg version="1.1" xmlns="http://www.w3.org/2000/svg" xmlns:xlink="http://www.w3.org/1999/xlink" x="0px" y="0px" viewBox="0 0 256 256" enable-background="new 0 0 256 256" xml:space="preserve">
<metadata> Svg Vector Icons : http://www.onlinewebfonts.com/icon </metadata>
<g><g><g><path fill="#000000" d="M54.9,60.2c-2.9,1.3-4.7,3.8-5.5,7.5L49.2,69h-18h-18l-1.6,1.6c-1.1,1.1-1.6,2-1.6,3c0,1.8,1.2,3.9,2.6,4.6c0.7,0.3,7.1,0.5,18.8,0.5h17.7v9.9v9.9H36.5c-14.2,0-15,0.1-16.2,3.1c-0.9,2-0.2,4.3,1.5,5.7c1.1,0.9,1.8,0.9,14.2,0.9h13.1v9.9v9.9h-7.8c-8.6,0-10,0.3-11,2.5c-1,2.2-0.7,4.3,0.8,5.8l1.3,1.3h8.3h8.3v9.9v9.9h-3.3c-3.1,0-3.4,0.1-4.8,1.6c-1.8,1.8-2,3.5-0.9,5.8c0.9,1.7,2.5,2.3,6,2.3H49l0.7,2.7c0.6,2.2,1.2,3.1,2.9,4.6c2.6,2.3,4.8,2.9,11.4,2.9h5.3l1.1,2.9c2,5.7,6.1,10.6,11.3,13.5c9.5,5.3,22,3.5,29.6-4.4c2.5-2.6,5-6.8,5.7-9.7l0.6-2.3h32.5h32.5l0.6,2.3c1.2,4.8,5.8,10.7,10.6,13.6c7.7,4.7,18.3,4.6,25.9-0.2c4.7-3,8.3-7.6,10-12.7l0.9-2.7l7.6-0.1l7.7-0.1v-24.6v-24.6l-19.7-19.6l-19.7-19.7H192h-14.6l-0.2-11.2c-0.1-10.4-0.2-11.3-1.2-13c-1.2-2.3-2.7-3.7-4.8-4.6c-1.5-0.6-8.3-0.7-58.1-0.7C59.5,59.3,56.7,59.3,54.9,60.2z M167.2,118.1v49.1h-24.8h-24.8l-0.8-2.7c-2.1-7.3-9.2-13.9-17-16c-3.2-0.9-9.2-0.9-12.5,0c-7.7,2-14,7.8-16.7,15.3l-1.2,3.4h-5h-5v-49.1V69h53.9h53.9V118.1z M219.4,115.4l16.9,16.9l-0.1,17.3l-0.1,17.3l-2.6,0.1l-2.6,0.1l-1.2-3.4c-2-5.6-6.7-10.9-11.9-13.6c-6.6-3.4-15.3-3.4-22.3,0c-5.2,2.5-10.5,8.8-12.1,14.2l-0.8,2.7H180h-2.7v-34.3V98.5h12.6h12.5L219.4,115.4z M100.1,159c2.8,1.3,5.2,3.8,6.8,6.8c0.9,1.7,1.1,2.7,1.1,6.4c0,3.7-0.2,4.7-1.1,6.4c-1.6,3-4.1,5.5-6.9,6.9c-3.5,1.8-8.8,1.8-12.4,0.2c-2.9-1.3-6.3-4.7-7.6-7.8c-1.3-3-1.3-8.3,0-11.2c1.2-2.5,4.3-6.1,6.3-7.1C90.7,157.1,95.8,157,100.1,159z M212.7,158.9c5,2.2,8.6,7.7,8.6,13.4c0,5.6-3.6,11.2-8.6,13.4c-3.7,1.6-8.9,1.6-12.4-0.2c-4.8-2.4-7.7-6.7-8.1-12.1c-0.2-3.9,0.4-6.4,2.4-9.3C198.6,158,205.9,155.9,212.7,158.9z"/><path fill="#000000" d="M91.8,167.6c-1.6,0.6-2.9,2.7-2.9,4.7c0,2.1,1.7,4.4,3.6,4.8c2.8,0.6,6-2,6-4.8c0-1.7-1.4-3.7-3-4.4C93.7,167.1,93.2,167.1,91.8,167.6z"/><path fill="#000000" d="M204.7,167.8c-1.5,0.7-2.9,2.8-2.9,4.4c0,1.7,1.4,3.7,3.1,4.4c4.7,2,8.8-3.9,5.3-7.7C208.7,167.3,206.7,166.9,204.7,167.8z"/></g></g></g>
</svg>