<?xml version="1.0" encoding="utf-8"?>
<!-- Svg Vector Icons : http://www.onlinewebfonts.com/icon -->
<!DOCTYPE svg PUBLIC "-//W3C//DTD SVG 1.1//EN" "http://www.w3.org/Graphics/SVG/1.1/DTD/svg11.dtd">
<svg version="1.1" xmlns="http://www.w3.org/2000/svg" xmlns:xlink="http://www.w3.org/1999/xlink" x="0px" y="0px" viewBox="0 0 256 256" enable-background="new 0 0 256 256" xml:space="preserve">
<metadata> Svg Vector Icons : http://www.onlinewebfonts.com/icon </metadata>
<g><g><g><path fill="#000000" d="M123.6,10.6c-2.4,1.5-3.6,3.1-5.6,8.1l-1.4,3.5l-3.9-4.1c-3.1-3.3-4.3-4.2-6.1-4.7c-4.1-1.1-8.2,0.5-10.6,4.1c-1,1.4-1.4,3-1.7,6.4c-0.3,2.5-0.5,4.8-0.5,5.2c0,0.4-1.9-0.5-4.2-1.9c-2.2-1.4-5-2.7-6-2.8c-4.4-0.8-9.5,2.4-10.7,6.6c-0.7,2.7-0.7,3.4,0.2,6.8c1.5,6.3,1.5,5.8-0.1,5.5c-0.8-0.2-3.1-0.7-5.1-1.1c-3.3-0.7-3.9-0.7-6.2-0.1c-4.3,1.3-7.1,5.6-6.6,10.2c0.2,1.4,1.2,3.6,2.7,6.2c2.8,4.4,2.7,4.7-1.5,4.8c-9.1,0.1-14,5.4-12,12.9c0.6,2,1.8,3.5,6,7.1l2.8,2.3l-4,1.7c-2.2,0.9-4.6,2.1-5.4,2.7c-2.7,1.9-4.1,6.1-3.3,9.7c0.8,3.6,2.8,5.5,8.1,7.8l4.7,1.9l-3.8,3.5c-5.3,4.8-6.5,8.2-4.7,12.6c1.8,4.2,4.2,5.7,10.6,6.2c2.6,0.3,4.7,0.6,4.8,0.7c0.2,0.2-0.8,2-2.1,4.2c-1.6,2.6-2.5,4.6-2.7,6.1c-0.5,4.6,2.7,9.2,7.1,10.5c1.8,0.5,3,0.4,7-0.5c2.7-0.6,4.9-1,5-0.9c0.1,0.1-0.4,2.4-1,5.1c-1,4.2-1,5.2-0.5,7c1.3,4.5,6,7.7,10.3,7c1.1-0.2,3.9-1.3,6.2-2.7c2.2-1.3,4.2-2.3,4.3-2.1c0.1,0.1,0.4,2.2,0.7,4.8c0.7,6.4,2.1,8.8,6.3,10.6c4.4,1.8,7.6,0.6,12.4-4.6l3.6-3.8l2,4.6c2.7,6.1,4.5,7.7,9.2,8c2.9,0.2,3.6,0.1,5.6-1.1c1.9-1.1,2.7-2,4.1-5.1c1-2,2-4.3,2.3-5.2l0.6-1.5l2.4,2.8c5,5.8,7.3,7,11.6,6.4c5.2-0.8,7.8-4.4,8.3-11.3c0.2-2.4,0.5-4.4,0.7-4.6c0.2-0.1,2.1,0.8,4.2,2.1c4.7,2.9,7.7,3.4,11.1,1.9c5-2.1,6.4-6.6,4.7-14.1c-0.5-2.1-0.8-4-0.7-4.1c0.2-0.1,2.4,0.3,5.1,0.9c4.1,0.9,5.1,1,7,0.5c3.1-0.9,5.9-3.8,6.7-7.1c0.8-3.3,0.3-5.1-2.7-10l-2.3-3.8l2.9-0.3c8.1-0.8,10.9-2.1,12.7-5.8c1-2.2,1.2-6.4,0.3-8.4c-0.4-0.7-2.4-2.9-4.5-4.8l-3.9-3.6l4-1.7c2.2-0.9,4.6-2.1,5.4-2.6c2.8-2,4.3-7.5,2.9-11c-0.9-2.4-3.5-4.6-7.6-6.3c-2.1-0.9-4.1-1.8-4.3-2c-0.2-0.2,1.2-1.8,3.2-3.5c4.2-3.8,5.3-5.5,5.3-9c0-5.4-3.8-9.2-10-9.7c-1.8-0.2-4-0.4-4.9-0.5l-1.6-0.3l2.7-4.4c2.2-3.8,2.6-4.7,2.6-7c0-4.7-2.8-8.3-7.4-9.5c-1.5-0.4-2.9-0.3-6.6,0.5c-2.6,0.6-4.8,1-4.9,0.8c-0.2-0.2,0.2-1.9,0.6-4c1.2-5.1,1.1-7.7-0.5-10.3c-1.7-2.9-4.7-4.5-8.3-4.5c-2.3,0-3.4,0.4-6.8,2.4c-2.3,1.3-4.3,2.2-4.5,2.1c-0.2-0.2-0.6-2.2-0.7-4.7c-0.5-6.6-3-10-8.4-11.2c-3.3-0.7-5.7,0.5-10,5c-3.8,4-4,4.1-4.4,2.9c-1.5-4-3.4-7.6-4.5-8.8C132.3,9,127.3,8.3,123.6,10.6z M139,36.6c22.1,3.9,40,19.2,47.6,40.8c4.1,11.6,4.3,26.2,0.5,38.4c-4.6,15-16.2,28.7-30.3,36c-20.2,10.4-43.7,9.1-62.5-3.4c-13.4-9-22.7-22.7-26.3-39.2c-1.2-5.3-1.2-18.6,0-24c2.8-12.6,8.3-22.7,17.1-31.5c8.9-8.9,19-14.3,31.4-16.8C122.4,35.6,132.8,35.5,139,36.6z"/><path fill="#000000" d="M151.1,69.6c-0.6,0.4-8.7,8.1-18.1,17.1l-17,16.5l-4.8-5.1c-4-4.2-5.3-5.2-7.1-5.7c-4.1-1.1-8.8,1.4-10.8,5.9c-2.1,4.6-1.2,6.3,9.6,17.9c7.3,7.9,9.2,9.5,10.9,10c4.4,1.2,4.2,1.3,27.8-21.8c11.9-11.7,21.9-21.9,22.3-22.7c0.3-0.8,0.5-2.6,0.4-4c-0.3-2.3-0.6-2.9-3.1-5.5c-2.7-2.7-3-2.9-5.8-3C153.4,69.1,151.8,69.3,151.1,69.6z"/><path fill="#000000" d="M36,135.1c-2.9,0.8-4.8,2.1-6.3,4.4c-0.9,1.3-1.2,2.4-1.2,5.2c0,5,3,36,3.7,38.4c0.4,1.2,1.4,2.7,2.9,4l2.3,2l-13.7,13.7L10,216.4l3.2,0.4c1.8,0.2,8.2,0.7,14.2,1.1c6,0.5,11,0.9,11.1,0.9c0.1,0.1,2.2,26.9,2.2,28c0,0.4,13-12.3,28.8-28.2s28.8-28.9,28.8-29.1c0-0.2-0.8-0.6-1.7-0.9c-2.6-0.9-6.6-4.7-8-7.6c-0.7-1.3-1.2-2.5-1.3-2.6c0-0.1-1.2,0-2.7,0.3c-6.7,1-14-2.2-17.4-7.8l-1-1.6l-13.8,1c-7.6,0.5-13.9,0.8-14.1,0.7c-0.5-0.5-1.9-17.1-1.6-17.5c0.2-0.2,2.9-0.5,6-0.8c3.2-0.3,5.8-0.5,5.9-0.6c0.1-0.1-0.2-1.2-0.7-2.4c-0.9-2.4-1.1-7.5-0.5-9.7c0.3-1.2,0.2-1.4-0.9-1.7c-0.7-0.2-2.3-1.1-3.6-2.1C40.5,134.2,39.7,134.1,36,135.1z M64.5,202.7c-10.1,10.1-18.5,18.4-18.7,18.4c-0.2,0-0.5-1.8-0.5-4c-0.1-2.2-0.4-4.2-0.6-4.4c-0.2-0.2-2.2-0.5-4.5-0.6c-2.2-0.2-4.2-0.5-4.3-0.7c-0.1-0.2,5.1-5.7,11.6-12.1l11.8-11.8l10-1.5c5.5-0.8,10.8-1.5,11.7-1.5C82.7,184.4,82.1,185.1,64.5,202.7z"/><path fill="#000000" d="M214.6,135.6c-0.8,0.7-2.3,1.6-3.3,2.1l-1.8,0.8v5.2c0,4-0.2,5.6-0.9,6.8c-0.5,0.9-0.7,1.7-0.5,1.7c4,0.3,11,1,11.2,1.2c0.4,0.4-1.1,17-1.5,17.5c-0.2,0.2-6.3-0.1-13.7-0.6l-13.4-0.9l-0.8,1.3c-1.6,2.7-5.8,6-8.6,7.1c-2.9,1.1-8.4,1.5-10.6,0.8c-0.9-0.3-1.2,0.1-2,1.8c-1.3,3-5.1,6.6-8.2,8.2l-2.7,1.3l28.8,28.8c15.9,15.9,28.8,28.5,28.8,28.1c0-0.4,0.5-6.3,1-13c0.6-6.7,1-12.9,1-13.6v-1.3l11.4-0.9c6.2-0.5,12.7-1,14.3-1.2l3-0.3l-13.7-13.7c-13.1-13-13.7-13.8-12.7-14.4c2.2-1.6,3.7-3.4,4.2-5.3c0.7-2.3,3.7-33.1,3.7-38c0-2-0.3-4-0.7-4.8c-1.5-2.9-4.5-4.7-8.7-5.4C216.4,134.4,215.8,134.5,214.6,135.6z M186,185.9l10.7,1.5l11.8,11.8c6.5,6.5,11.7,12,11.6,12.1c-0.2,0.2-2.1,0.5-4.3,0.7c-2.3,0.2-4.3,0.4-4.4,0.6c-0.2,0.2-0.4,2.1-0.6,4.4c-0.1,2.2-0.4,4.1-0.6,4.1c-0.2,0-8.6-8.3-18.7-18.4c-13.3-13.3-18.1-18.4-17.3-18.4C174.9,184.4,180.2,185.1,186,185.9z"/></g></g></g>
</svg>