<?xml version="1.0" encoding="utf-8"?>
<!-- Svg Vector Icons : http://www.onlinewebfonts.com/icon -->
<!DOCTYPE svg PUBLIC "-//W3C//DTD SVG 1.1//EN" "http://www.w3.org/Graphics/SVG/1.1/DTD/svg11.dtd">
<svg version="1.1" xmlns="http://www.w3.org/2000/svg" xmlns:xlink="http://www.w3.org/1999/xlink" x="0px" y="0px" viewBox="0 0 256 256" enable-background="new 0 0 256 256" xml:space="preserve">
<metadata> Svg Vector Icons : http://www.onlinewebfonts.com/icon </metadata>
<g><g><g><g><path fill="#000000" d="M49.8,115.2c0,2,0.7,3.4,2.8,3.4c2.1,0,2.8-1.4,2.8-3.4V93c0-2.1-1-2.6-2.1-2.6c-3.2,0-2,4.5-6.1,5.4l-1.4,0.3c-1.9,0.4-2.7,0.8-2.7,2.2c0,1.6,0.7,2.1,1.9,2.1h4.8V115.2L49.8,115.2z"/><path fill="#000000" d="M69.8,118.6c7.8,0,9.9-7.6,9.9-14.5c0-9.2-3.9-13.8-9.9-13.8c-6,0-9.9,4.6-9.9,13.8C60,111,62,118.6,69.8,118.6z M69.8,95c3.3,0,4.5,3.6,4.5,9.4c0,7-1.6,9.4-4.5,9.4c-2.9,0-4.5-2.5-4.5-9.4C65.4,98.6,66.6,95,69.8,95z"/><path fill="#000000" d="M92.5,118.6c7.8,0,9.9-7.6,9.9-14.5c0-9.2-3.9-13.8-9.9-13.8c-6,0-9.9,4.6-9.9,13.8C82.6,111,84.7,118.6,92.5,118.6z M92.5,95c3.3,0,4.5,3.6,4.5,9.4c0,7-1.6,9.4-4.5,9.4c-2.8,0-4.5-2.5-4.5-9.4C88,98.6,89.3,95,92.5,95z"/><path fill="#000000" d="M125.5,111.1c0,4.2,1.7,7.4,6.2,7.4c4.5,0,6.2-3.2,6.2-7.4c0-4.2-1.7-7.4-6.2-7.4C127.3,103.7,125.5,106.9,125.5,111.1z M131.8,106.7c1.7,0,2.2,2.1,2.2,4.4c0,2.5-0.5,4.4-2.2,4.4c-1.7,0-2.2-1.9-2.2-4.4C129.5,108.8,130.1,106.7,131.8,106.7z"/><path fill="#000000" d="M114.1,118.3c0,0.6,0.6,1.3,1.4,1.3c0.7,0,1.2-0.6,1.4-1.1L130.3,92c0.3-0.5,0.4-0.9,0.4-1.3c0-0.6-0.6-1.3-1.4-1.3c-0.7,0-1.2,0.6-1.4,1.1L114.5,117C114.2,117.4,114.1,117.9,114.1,118.3z"/><path fill="#000000" d="M113,105.3c4.5,0,6.2-3.2,6.2-7.4c0-4.2-1.7-7.4-6.2-7.4c-4.5,0-6.2,3.2-6.2,7.4C106.8,102,108.5,105.3,113,105.3z M113,93.4c1.7,0,2.2,2.1,2.2,4.4c0,2.5-0.5,4.4-2.2,4.4c-1.7,0-2.2-1.9-2.2-4.4C110.8,95.5,111.3,93.4,113,93.4z"/><path fill="#000000" d="M90.6,185c24,0,45.5-10.6,60.3-27.3l11.5,9.4c-1.1,4,0.1,8.4,3.5,11.2l62.6,51.3c2,1.6,4.4,2.4,6.8,2.4c3.1,0,6.2-1.3,8.3-3.9c3.8-4.6,3.1-11.4-1.5-15.1l-62.6-51.3c-3.4-2.8-8-3.1-11.7-1.3l-11.6-9.5c9.3-13.2,14.9-29.2,14.9-46.5c0-44.4-36.1-80.6-80.6-80.6C46.1,23.9,10,60.1,10,104.5C10,148.9,46.1,185,90.6,185z M90.6,32.5c39.7,0,72,32.3,72,72c0,39.7-32.3,72-72,72c-39.7,0-72-32.3-72-72C18.6,64.8,50.9,32.5,90.6,32.5z"/><path fill="#000000" d="M90.6,172.6c37.6,0,68.1-30.6,68.1-68.1c0-37.6-30.6-68.1-68.1-68.1s-68.1,30.6-68.1,68.1C22.4,142.1,53,172.6,90.6,172.6z M90.6,44.9c32.8,0,59.6,26.7,59.6,59.6c0,32.8-26.7,59.6-59.6,59.6C57.7,164,31,137.3,31,104.5C31,71.6,57.7,44.9,90.6,44.9z"/></g></g><g></g><g></g><g></g><g></g><g></g><g></g><g></g><g></g><g></g><g></g><g></g><g></g><g></g><g></g><g></g></g></g>
</svg>