<svg
      version="1.1"
      xmlns="http://www.w3.org/2000/svg"
      xmlns:xlink="http://www.w3.org/1999/xlink"
      x="0px"
      y="0px"
      viewBox="0 0 1000 1000"
      enable-background="new 0 0 1000 1000"
      xml:space="preserve"
    >
      <g>
        <path d="M218.6,674c12.2,36.3,50.9,64.3,89,64.3h533.1h18.6l5.2-18.1L987.1,292c12.2-42.7-15.8-80.4-59.6-80.4H406.8c-13.7,0-24.8,11.2-24.8,25.1c0,13.8,11.1,25.1,24.8,25.1h520.7c10.8,0,15,5.7,12,16.3L816.9,706.2l23.8-18.1H307.7c-16.9,0-36.7-14.3-42.1-30.2L58.3,40.6c-4.4-13.1-18.5-20.1-31.5-15.7c-13,4.5-19.9,18.7-15.5,31.8L218.6,674L218.6,674z M382,876.1c0-55.4-44.4-100.3-99.2-100.3s-99.2,44.9-99.2,100.3c0,55.4,44.4,100.3,99.2,100.3S382,931.5,382,876.1L382,876.1z M233.2,876.1c0-27.7,22.2-50.2,49.6-50.2c27.4,0,49.6,22.5,49.6,50.2c0,27.7-22.2,50.2-49.6,50.2C255.4,926.3,233.2,903.8,233.2,876.1L233.2,876.1z M902.7,876.1c0-55.4-44.4-100.3-99.2-100.3c-54.8,0-99.2,44.9-99.2,100.3c0,55.4,44.4,100.3,99.2,100.3C858.3,976.5,902.7,931.5,902.7,876.1L902.7,876.1z M754,876.1c0-27.7,22.2-50.2,49.6-50.2c27.4,0,49.6,22.5,49.6,50.2c0,27.7-22.2,50.2-49.6,50.2C776.2,926.3,754,903.8,754,876.1L754,876.1z" />
      </g>
    </svg>