<?xml version="1.0" encoding="utf-8"?>
<!-- Svg Vector Icons : http://www.onlinewebfonts.com/icon -->
<!DOCTYPE svg PUBLIC "-//W3C//DTD SVG 1.1//EN" "http://www.w3.org/Graphics/SVG/1.1/DTD/svg11.dtd">
<svg version="1.1" xmlns="http://www.w3.org/2000/svg" xmlns:xlink="http://www.w3.org/1999/xlink" x="0px" y="0px" viewBox="0 0 256 256" enable-background="new 0 0 256 256" xml:space="preserve">
<metadata> Svg Vector Icons : http://www.onlinewebfonts.com/icon </metadata>
<g><g><path fill="#000000" d="M242.3,192.2c-4.9,4.9-12.9,5-17.8,0.1l0,0L128,96.1l-96.2,96c0,0,0,0-0.1,0.1c0,0-0.1,0.1-0.2,0.2l-0.2,0.2l0,0c-5,4.6-12.8,4.5-17.7-0.3c-4.9-4.8-5-12.6-0.3-17.6l0,0l0.3-0.3c0,0,0,0,0.1-0.1c0,0,0.1-0.1,0.2-0.2L110,78.1l-0.1-0.1l18-18l113.8,113.6c0.2,0.2,0.4,0.3,0.5,0.5C247.2,179.2,247.2,187.2,242.3,192.2z"/></g></g>
</svg>