<?xml version="1.0" standalone="no"?>
<!DOCTYPE svg PUBLIC "-//W3C//DTD SVG 20010904//EN"
 "http://www.w3.org/TR/2001/REC-SVG-20010904/DTD/svg10.dtd">
<svg version="1.0" xmlns="http://www.w3.org/2000/svg"
 width="116.000000pt" height="161.000000pt" viewBox="0 0 116.000000 161.000000"
 preserveAspectRatio="xMidYMid meet">
<metadata>
Created by potrace 1.10, written by Peter Selinger 2001-2011
</metadata>
<g transform="translate(0.000000,161.000000) scale(0.050000,-0.050000)"
fill="" stroke="none">
<path d="M1120 3052 c0 -5 31 -54 69 -111 117 -173 111 -263 -32 -481 l-46
-70 74 56 c177 132 280 143 444 44 129 -78 150 -80 94 -8 -135 174 -135 322 0
496 56 72 35 70 -94 -8 -157 -94 -227 -93 -386 10 -68 43 -123 76 -123 72z"/>
<path d="M691 2547 c-31 -201 -176 -345 -351 -347 -102 -1 -107 -34 -7 -49
214 -32 310 -118 350 -311 28 -134 46 -138 65 -17 31 192 121 279 336 324 114
25 120 29 66 41 -283 64 -350 117 -393 313 -32 148 -49 160 -66 46z"/>
<path d="M1383 2110 c-144 -36 -143 -39 7 -76 848 -210 889 -1400 58 -1696
-800 -285 -1519 683 -1008 1357 93 123 93 123 38 193 -53 67 -82 47 -201 -137
-455 -697 47 -1615 883 -1615 1053 0 1454 1354 572 1927 -129 84 -172 90 -349
47z"/>
<path d="M1810 1395 c0 -679 -797 -1026 -1286 -561 -103 98 -107 77 -12 -66
333 -501 1093 -451 1344 87 91 196 81 573 -20 710 -22 30 -26 3 -26 -170z"/>
</g>
</svg>
