<svg xmlns="http://www.w3.org/2000/svg" xmlns:xlink="http://www.w3.org/1999/xlink" version="1.1" x="0px" y="0px" viewBox="0 0 100 100" style="enable-background:new 0 0 100 100;" xml:space="preserve"><g><path d="M72.354,51.297c-13.449,0-24.352,10.902-24.352,24.352S58.904,100,72.354,100s24.352-10.902,24.352-24.352   S85.803,51.297,72.354,51.297z M72.354,93.527c-1.557,0-3.066-0.2-4.506-0.573c-0.117-0.03-0.234-0.063-0.352-0.096   c-0.013-0.003-0.025-0.007-0.038-0.01c-7.482-2.11-12.982-8.997-12.982-17.144c0-0.002,0-0.004,0-0.006   c0-0.018-0.001-0.034-0.001-0.051c0-9.874,8.004-17.879,17.879-17.879c9.873,0,17.878,8.005,17.878,17.879   S82.227,93.527,72.354,93.527z M67.458,92.849c0.013,0.003,0.025,0.007,0.038,0.01C67.483,92.855,67.471,92.852,67.458,92.849z    M90.231,75.648c0,9.874-8.005,17.879-17.878,17.879c-1.557,0-3.066-0.2-4.506-0.573c1.42,0.365,2.906,0.56,4.438,0.56   c9.82,0,17.809-7.989,17.809-17.809c0-9.82-7.988-17.81-17.809-17.81c-9.818,0-17.807,7.986-17.81,17.804   c0-0.018-0.001-0.034-0.001-0.051c0-9.874,8.004-17.879,17.879-17.879C82.227,57.77,90.231,65.774,90.231,75.648z M67.848,92.954   c-0.117-0.03-0.235-0.063-0.352-0.096C67.613,92.891,67.73,92.924,67.848,92.954z M67.458,92.849   c-7.482-2.11-12.982-8.997-12.982-17.144c0-0.002,0-0.004,0-0.006C54.498,83.854,59.979,90.724,67.458,92.849z M45.879,63.119   c2.743-5.841,7.186-10.339,12.459-13.184c3.215-8.046,5.417-15.2,5.417-19.706C63.755,13.534,50.222,0,33.525,0   C16.83,0,3.295,13.534,3.295,30.229C3.295,46.925,33.525,100,33.525,100s4.579-8.039,10.172-18.844   C42.509,75.272,43.131,68.971,45.879,63.119z M15.542,30.229c0-9.931,8.051-17.982,17.982-17.982   c9.933,0,17.985,8.051,17.985,17.982c0,9.934-8.052,17.983-17.985,17.983C23.593,48.213,15.542,40.163,15.542,30.229z M75.863,87   h-6.198v-8.123h-8.124v-6.199h8.124v-8.123h6.198v8.123h8.124v6.199h-8.124V87z"/></g></svg>