<?xml version="1.0" encoding="utf-8"?>
<!-- Svg Vector Icons : http://www.onlinewebfonts.com/icon -->
<!DOCTYPE svg PUBLIC "-//W3C//DTD SVG 1.1//EN" "http://www.w3.org/Graphics/SVG/1.1/DTD/svg11.dtd">
<svg version="1.1" xmlns="http://www.w3.org/2000/svg" xmlns:xlink="http://www.w3.org/1999/xlink" x="0px" y="0px" viewBox="0 0 256 256" enable-background="new 0 0 256 256" xml:space="preserve">
<metadata> Svg Vector Icons : http://www.onlinewebfonts.com/icon </metadata>
<g><g><path fill="#000000" d="M65.1,106.2c0,7.5,6.1,13.7,13.7,13.7s13.7-6.1,13.7-13.7c0-7.5-6.1-13.7-13.7-13.7S65.1,98.7,65.1,106.2L65.1,106.2z M216.9,17.8H39.3C23.2,17.8,10,31,10,47.3v118c0,16.3,13.2,29.5,29.3,29.5h95.4l39.2,39.8c4.6,4.6,9.5,5.2,14,0.6c4.6-4.6,2.9-9.3-1.7-13.9L149.8,184c-4.6-3.9-7.1-7.2-14.9-7.1H45.2c-13.1-0.1-17.2-4.6-17.4-17.6V54c0.2-11,5.2-18.7,17.4-18.4h165.5c12.8-0.1,17.8,6.1,17.4,18.4v105.4c-0.1,12.7-5.1,17.5-17.4,17.6c0,0-3.1-0.1-3.8-0.1c-6.6,0-11.2,2.4-11.2,9s2.6,9,9.2,9c0.3,0,12,0,12,0c16.1,0,29.1-13.2,29.1-29.5v-118C246,31,233,17.8,216.9,17.8L216.9,17.8z M114.3,106.2c0,7.5,6.1,13.7,13.7,13.7s13.7-6.1,13.7-13.7c0-7.5-6.1-13.7-13.7-13.7S114.3,98.7,114.3,106.2L114.3,106.2z M177.1,92.6c-7.5,0-13.7,6.1-13.7,13.7c0,7.5,6.1,13.7,13.7,13.7s13.7-6.1,13.7-13.7C190.8,98.7,184.7,92.6,177.1,92.6L177.1,92.6z"/></g></g>
</svg>