<?xml version="1.0" encoding="utf-8"?>
<!-- Svg Vector Icons : http://www.onlinewebfonts.com/icon -->
<!DOCTYPE svg PUBLIC "-//W3C//DTD SVG 1.1//EN" "http://www.w3.org/Graphics/SVG/1.1/DTD/svg11.dtd">
<svg version="1.1" xmlns="http://www.w3.org/2000/svg" xmlns:xlink="http://www.w3.org/1999/xlink" x="0px" y="0px" viewBox="0 0 256 256" enable-background="new 0 0 256 256" xml:space="preserve">
<metadata> Svg Vector Icons : http://www.onlinewebfonts.com/icon </metadata>
<g><g><g><path fill="#000000" d="M51.8,36.8c-4.9,1-6.6,1.6-11,3.5C19.6,49.5,6.9,72.9,10.6,95.9c1,5.8,3.4,12.6,6.2,17.5l2.3,4.1v31.8c0,17.9,0.2,33,0.5,34.5c0.6,3.6,2.1,6.5,4.5,8.7c3.5,3.1,5.4,3.7,12.9,4l6.6,0.2l0.3,1.8c0.6,3.6,4.2,9.7,7.6,13.2c11.1,11.1,28.8,11.1,39.9-0.1c3.5-3.5,6.2-8.3,7.3-12.5l0.6-2.3l23.5-0.2c25-0.2,24.6-0.2,27.8-2.6c1.4-1.1,1.6-1.1,2.3-0.4c1.8,1.6,5.4,2.7,9.4,3l4,0.2l0.8,2.8c3.3,11.8,14.9,20.6,27.3,20.6c12.7,0,24.1-9.1,27.5-21.9c0.5-1.8,0.9-2.9,0.9-2.4c0,0.8,0.5,0.8,6.2,0.6c5.4-0.1,6.4-0.3,8.7-1.4c3-1.4,5.7-4,7.3-7.1l1.2-2.3v-26.5v-26.5l-1.1-3.5c-1.9-6.1-4.6-10.4-15.8-25.4c-12.6-16.8-16-20.4-21.6-23.3c-4.2-2.1-4.9-2.2-28.8-2l-22.5,0.1v-6.7c0-6.6,0-6.8-1.4-9.6c-0.8-1.6-2.3-3.6-3.3-4.4c-3.5-3-3.7-3-27.6-3h-21.5l-3.7-3.6c-8.3-8-17.4-12.8-27.9-14.6C65.6,35.7,56.9,35.8,51.8,36.8z M71.3,46.3c18,4.2,30.6,18.5,32.8,36.8c0.6,5.1,0.3,8.9-1,14.5c-3.4,14.6-14.4,26.3-29.4,30.9c-3.7,1.1-4.8,1.2-11.7,1.2c-6.6,0-8.1-0.1-11.3-1c-15.6-4.5-27.2-16.9-30.4-32.5c-0.9-4.5-1-12.7,0-17.1c2.4-11.9,10.4-22.6,21.1-28.6c3.5-1.9,10.1-4.2,14.2-4.8C59.5,45,67.4,45.4,71.3,46.3z M145.5,65.2l1.3,1.1l0.1,58.6c0.1,41.1,0,58.9-0.4,59.7c-0.2,0.7-0.9,1.5-1.5,1.8c-0.7,0.4-7.2,0.5-23.4,0.4l-22.4-0.1l-0.6-2.3c-1.8-7.1-7.8-14.4-14.6-17.8c-4.2-2-8.8-3.2-12.8-3.2c-8.2,0-16.9,4.3-22.1,10.9c-2.2,2.8-4.9,8.3-5.4,10.8l-0.3,1.8h-5.8H32l-1.6-1.6l-1.6-1.6v-27.7c0-15.3,0.1-27.7,0.3-27.7c0.1,0,1.1,0.6,2,1.3c2.6,2,6.9,4.5,10.5,6c27.9,11.8,59.7-2.6,69.5-31.3c3.9-11.4,3.3-25.4-1.5-36.8l-1.4-3.3h17.9h18L145.5,65.2z M202.8,88.7c3,1.6,9.2,7.2,9.2,8.3c0,0.1-5.6,0.3-12.5,0.3c-14.5,0-15.9,0.3-19.8,4.1c-4.2,4.2-4.8,7-4.6,21.3c0.1,9.5,0.2,10.6,1.2,12.6c1.3,2.9,4.6,6.4,7.4,7.8l2.2,1.2l25.4,0.2l25.4,0.2v19.2c0,20.9,0,21-2.6,22.4c-0.8,0.5-2.9,0.6-6.4,0.6c-4.9,0-5.1,0-5.1,1c0,0.6-0.3-0.3-0.7-1.9c-2.9-13.6-15.9-23.4-29.5-22.4c-7.1,0.5-12.8,3.1-18,8.3c-3.6,3.6-6.2,7.8-7.4,12.1l-0.8,2.9h-3c-3.1,0-4.6-0.6-5.9-2.3c-0.8-0.9-0.9-92.8-0.1-94.2c0.2-0.5,1.2-1.3,1.9-1.8c1.4-0.9,2.3-0.9,21.8-0.8C199.8,87.8,201.3,87.9,202.8,88.7z M225.6,114.7c3.3,4.5,6.8,9.5,7.6,11.1c1.5,3,3.3,7.6,3.3,8.8c0,0.5-4,0.6-24.3,0.5l-24.3-0.1l-1.6-1.7l-1.6-1.8V121c0-11.6,0.1-12.3,2.8-13.6c1.4-0.7,3.3-0.8,16.8-0.8h15.1L225.6,114.7z M79.2,174.6c3.9,1.8,7.3,5.3,9.3,9.3c1.4,2.9,1.5,3.4,1.5,7.8c0,4.2-0.1,4.9-1.5,7.7c-1.8,3.9-5,7.2-9,9.2c-2.8,1.4-3.2,1.5-8,1.5c-4.7,0-5.3-0.1-8.1-1.4c-5.4-2.6-9.6-8-10.7-14c-1.1-5.6,1.1-12,5.4-16.3c4-4,7.8-5.5,13.8-5.3C75.6,173.2,76.6,173.4,79.2,174.6z M202.3,174.8c3.9,2,7.1,5.3,9,9.2c1.4,2.9,1.5,3.5,1.5,7.9c0,4.8,0,4.9-1.8,8.2c-2.1,3.9-5.1,6.8-9,8.7c-2.4,1.2-3.1,1.3-7.7,1.3c-4.8,0-5.3-0.1-8.1-1.5c-11.5-5.6-14.4-20.4-5.8-29.6c4.2-4.5,8.1-6.1,14.5-5.9C198.9,173.2,199.7,173.4,202.3,174.8z"/><path fill="#000000" d="M60.9,50.1c-0.5,0.1-1.3,0.5-1.8,1c-1.9,1.7-2.1,3-2.1,17.3V82l-1.2,1.7c-0.6,0.9-1.2,2.4-1.2,3.1c0,1.2-0.9,2.3-5.5,7c-3.2,3.2-5.6,6.1-5.8,6.8c-1,4,3,7.2,6.6,5.2c0.7-0.4,3.5-3,6.3-5.8c4.1-4.1,5.3-5.1,6.4-5.1c1.8,0,3.8-1.1,5.2-3c1.8-2.4,1.8-5.7,0.1-8.4l-1.3-1.9V68c0-16.1-0.1-16.8-3.6-17.7C62.4,50.1,61.4,50,60.9,50.1z"/></g></g></g>
</svg>