<?xml version="1.0" encoding="utf-8"?>
<!-- Svg Vector Icons : http://www.onlinewebfonts.com/icon -->
<!DOCTYPE svg PUBLIC "-//W3C//DTD SVG 1.1//EN" "http://www.w3.org/Graphics/SVG/1.1/DTD/svg11.dtd">
<svg version="1.1" xmlns="http://www.w3.org/2000/svg" xmlns:xlink="http://www.w3.org/1999/xlink" x="0px" y="0px" viewBox="0 0 256 256" enable-background="new 0 0 256 256" xml:space="preserve">
<metadata> Svg Vector Icons : http://www.onlinewebfonts.com/icon </metadata>
<g><g><path fill="#000000" d="M120.5,237.2c-93-30-96-104.7-96.1-179.8h0.4c35.5,0,67.6-12.2,95.7-36.2c28.1,24,60.2,36.2,95.7,36.2h0.4c0,18.1-0.2,36.2-1.8,53.6c4.9,2,9.5,4.5,13.7,7.4c2.4-22.4,2.4-45.6,2.4-68.2l0-0.6c-0.2-4-3.5-7.1-7.5-6.8c-2.4,0.1-4.8,0.2-7.2,0.2c-34,0-64.8-12.5-91.3-37.2c-1.2-1.1-2.7-1.6-4.3-1.8V4l-0.1,0l-0.1,0v0.1c-1.5,0.1-3.1,0.6-4.3,1.8C89.5,30.5,58.8,43,24.8,43c-2.4,0-4.8-0.1-7.2-0.2c-4.1-0.3-7.3,2.9-7.5,6.8l0,0.6c0,80.2,0.1,167.9,108.4,201.5c0.7,0.2,1.3,0.3,1.9,0.3v0h0.1h0.1h0.1h0.1v0c0.7,0,1.3-0.1,1.9-0.3c12.5-3.9,23.5-8.5,33.4-13.8c-4.9-2.6-9.4-5.7-13.5-9.4C135.6,231.7,128.4,234.6,120.5,237.2z"/><path fill="#000000" d="M188.8,119.3c-31.6,0-57.2,25.6-57.2,57.2c0,31.6,25.6,57.2,57.2,57.2s57.2-25.6,57.2-57.2C246,144.9,220.4,119.3,188.8,119.3z M188.8,224.9c-26.7,0-48.4-21.7-48.4-48.4c0-26.8,21.7-48.4,48.4-48.4c26.7,0,48.4,21.7,48.4,48.4C237.2,203.2,215.5,224.9,188.8,224.9z"/><path fill="#000000" d="M193.6,174.5v-33H184V184h39.7v-9.5H193.6z"/></g></g>
</svg>