<svg viewBox="0 0 16.933333 16.933333" version="1.1" x="0px" y="0px"><g><path style="color:#000000;paint-order:fill markers stroke;" d="m 1.0583121,0.79493346 a 0.26448225,0.26448225 0 0 0 -0.18757289,0.07803 0.26448225,0.26448225 0 0 0 0,0.37307804 l 0.89394229,0.893944 c -0.5714119,0.22106 -0.96990059,0.818965 -0.96990159,1.502129 v 9.6478595 c 2.4e-6,0.864463 0.63732589,1.595662 1.45666089,1.595662 H 14.512919 l 1.17556,1.17556 a 0.26448225,0.26448225 0 0 0 0.287302,0.05735 0.26448225,0.26448225 0 0 0 0.08526,-0.05735 0.26448225,0.26448225 0 0 0 0.02274,-0.02585 0.26448225,0.26448225 0 0 0 -0.02274,-0.347243 l -1.241185,-1.241701 a 0.26448225,0.26448225 0 0 0 -0.02532,-0.02479 l -4.098182,-4.097667 a 0.26448225,0.26448225 0 0 0 -0.0041,-0.0047 l -0.0041,-0.0047 a 0.26448225,0.26448225 0 0 0 -0.01757,-0.01704 L 1.2458849,0.87296046 a 0.26448225,0.26448225 0 0 0 -0.1875728,-0.07803 z M 4.6263305,2.0485195 a 0.26448225,0.26448225 0 0 0 -0.2635322,0.263534 0.26448225,0.26448225 0 0 0 0.2635322,0.265597 H 14.68034 c 0.502739,3e-6 0.929594,0.454574 0.929596,1.064464 V 11.26336 L 12.315268,8.0792705 a 0.2645087,0.2645087 0 0 0 -0.206692,-0.07234 0.2645087,0.2645087 0 0 0 -0.191707,0.10593 l -0.65418,0.89239 a 0.26448225,0.26448225 0 0 0 0.05684,0.368947 0.26448225,0.26448225 0 0 0 0.368945,-0.05633 l 0.476424,-0.646426 3.445037,3.3272215 v 1.291307 c 10e-7,0.07032 -0.0065,0.139463 -0.01757,0.205142 a 0.26448225,0.26448225 0 0 0 0.217027,0.304869 0.26448225,0.26448225 0 0 0 0.30487,-0.217025 c 0.01603,-0.09506 0.02532,-0.193567 0.02532,-0.292986 V 3.6421105 c -3e-6,-0.864463 -0.639911,-1.593592 -1.459245,-1.593595 z m -2.4224286,0.530681 c 1.711e-4,-10e-6 3.439e-4,1.1e-5 5.291e-4,0 L 8.6247972,8.9985335 10.148116,10.521854 9.4515642,11.472636 4.8201164,6.7435265 a 0.2645087,0.2645087 0 0 0 -0.1875728,-0.08009 0.2645087,0.2645087 0 0 0 -0.1896398,0.07803 l -3.1189927,3.16807 v -6.267413 c 8e-7,-0.59041 0.3984635,-1.035105 0.8799908,-1.062914 z m 9.3109521,1.158509 c -0.746401,0 -1.357449,0.611049 -1.357449,1.357449 0,0.746401 0.611048,1.357449 1.357449,1.357449 0.746402,0 1.357448,-0.611048 1.357448,-1.357449 0,-0.7464 -0.611046,-1.357449 -1.357448,-1.357449 z m -0.0217,0.529647 c 0.0071,-1.77e-4 0.01451,0 0.0217,0 0.460528,0 0.8278,0.367273 0.8278,0.827802 0,0.460527 -0.367272,0.828318 -0.8278,0.828318 -0.460529,0 -0.828318,-0.367791 -0.828318,-0.828318 0,-0.453333 0.356209,-0.81656 0.806615,-0.827802 z m -6.8606196,3.038888 4.6614188,4.7606295 a 0.26448225,0.26448225 0 0 0 0.0041,0.0047 l 2.2374388,2.284979 H 2.2514408 c -0.502739,0 -0.927528,-0.456638 -0.9275297,-1.06653 v -2.632222 a 0.26448225,0.26448225 0 0 0 0.021703,-0.01603 z m 5.8943356,3.5943715 3.456404,3.455888 h -1.713475 a 0.26448225,0.26448225 0 0 0 -0.02842,-0.03514 L 9.8256672,11.855015 Z" fill="#000000" fill-rule="evenodd" stroke-width="1" stroke-linecap="round" stroke-linejoin="round"/></g></svg>