<?xml version="1.0" encoding="utf-8"?>
<!-- Svg Vector Icons : http://www.onlinewebfonts.com/icon -->
<!DOCTYPE svg PUBLIC "-//W3C//DTD SVG 1.1//EN" "http://www.w3.org/Graphics/SVG/1.1/DTD/svg11.dtd">
<svg version="1.1" xmlns="http://www.w3.org/2000/svg" xmlns:xlink="http://www.w3.org/1999/xlink" x="0px" y="0px" viewBox="0 0 256 256" enable-background="new 0 0 256 256" xml:space="preserve">
<metadata> Svg Vector Icons : http://www.onlinewebfonts.com/icon </metadata>
<g><g><g><path fill="#000000" d="M85.1,11.1C83.3,12,39,45.8,35.7,48.7c-1.8,1.6-3.4,5.4-3.4,8.1c0,2.8,1.4,6,3.4,8.2l1.4,1.5l-2.5,0.9c-3.3,1.1-6.4,3.9-7.4,6.6c-1.5,4-1,5.6,7.4,24.3l7.7,17.1l-7.7,17.2c-8.2,18.1-8.8,20.1-7.6,23.8c0.7,2.1,3,4.8,4.9,5.8c0.8,0.4,2.9,1.2,4.6,1.8l3.1,1l0.2,22.6c0.2,24.6,0.2,23.8,3.1,28.1c2.4,3.6,3.6,4,40.6,16.8c19.5,6.8,36.7,12.6,38.1,12.9c3.3,0.8,9,0.8,12.4,0c3.4-0.8,71.5-24.4,73.8-25.6c2.3-1.1,5.6-4.8,6.8-7.5c1-2.2,1-3,1.3-24.8l0.2-22.6l3.1-1c1.7-0.6,3.8-1.4,4.6-1.8c2-1,4.2-3.7,5-5.8c1.2-3.7,0.6-5.7-7.6-23.8l-7.7-17.1l7.9-17.6c8.6-19.3,8.9-20.1,7-24.3c-1.6-3.4-3.9-4.9-12.5-7.9c-4.2-1.5-19.8-6.9-34.6-12.1C157,45,154.1,44,151.3,44c-5.7,0-9.7,3.1-11.9,9.4l-1.1,2.9l-1.7-2.1c-3.4-4.2-8.9-9.7-12.9-12.6c-5-3.9-14.4-8.6-20.9-10.6c-2.8-0.9-5.3-1.6-5.6-1.7c-0.5-0.1-0.6-1.9-0.6-6.6c0-5.6-0.1-6.6-1-8.4C93.4,10.1,89.3,8.9,85.1,11.1z M89.5,17.2c0,0.1,0.2,4.1,0.3,8.9l0.3,8.8l5.4,1.4c18.8,4.9,32.4,15.3,41.3,31.6c5.6,10.4,9.2,24.2,10,38.1l0.3,5.2l-2.3-3.1c-4-5.4-6.6-8.2-11-11.9c-9.5-7.9-20.4-12.5-36.8-15.5c-3.5-0.7-6.6-1.2-6.8-1.2c-0.2,0-0.4,3.4-0.4,7.5c0,7.9-0.2,9.7-1.1,9.7c-0.3,0-11.4-8.3-24.6-18.5C38.6,58.4,38.2,58,39.5,55.4c0.4-0.8,9.7-8.3,24.6-19.8C85,19.5,89.1,16.6,89.5,17.2z M186.3,62.7c19.2,6.7,34.3,12.1,34.9,12.7c0.6,0.6,1,1.5,1,2.3c0,1.1-13.3,31.8-14.3,32.9c-0.1,0.2-11.8-3.6-25.7-8.5c-14-4.9-26.5-9.2-27.8-9.7l-2.3-0.8l-1.8-7.1c-1.7-6.7-4-13.5-6.4-18.3l-1.1-2.1l2.1-5.5c2.3-6,3.6-7.6,6-7.6C151.8,50.9,167.7,56.2,186.3,62.7z M62.7,85.8c9.5,7.3,17.2,13.4,17.2,13.6c0,0.5-31.6,11.5-31.9,11.1c-1-1.1-14.2-31.7-14.2-33c0-2,1.1-2.8,6.1-4.5c3.1-1.1,4.3-1.3,4.9-1C45.1,72.3,53.2,78.5,62.7,85.8z M103.7,89.2c18.5,4.7,29.5,12.8,40.6,29.6c2.7,4.1,5.4,8.3,6,9.2c1,1.5,1,1.6,1.2,0.4c1-4.2,1.8-13.7,1.7-20.9c-0.1-4.4,0-8,0.1-8c0.3,0,45.4,15.7,45.6,15.8c0.2,0.2-70,24.6-70.8,24.6c-1.4,0-70.9-24.5-70.3-24.8c0.3-0.2,8.3-3,17.8-6.4c9.4-3.3,17.7-6.3,18.2-6.7c2-1.3,2.9-4.2,2.9-9.4V88h1.2C98.5,88,101.1,88.6,103.7,89.2z M86.1,133c20,7,36.6,12.9,36.7,13c0.2,0.2-2.9,7.5-6.9,16.2c-6.1,13.5-7.4,16.1-8.6,16.8c-0.8,0.5-2,0.9-2.5,0.9c-1.7,0-69.1-23.6-70.1-24.6c-0.5-0.4-0.9-1.4-0.9-2.2c0-1,12.5-30.1,14.1-32.8C48.2,119.7,45.2,118.7,86.1,133z M215.1,135.9c4,9,7,16.3,7.1,17.2c0,0.9-0.4,1.8-0.9,2.3c-0.5,0.5-16.3,6.2-35.1,12.8c-36.2,12.6-36.2,12.6-38.4,10.5c-0.5-0.5-4-7.9-7.9-16.6c-5.4-12.1-6.9-15.8-6.5-16.1c0.9-0.7,73.2-25.9,74-25.8C207.8,120.1,211,126.7,215.1,135.9z M131.5,160.3c8.7,19.7,9.7,21.7,11.8,23.6c2.4,2.1,6.3,3.4,9.2,3c1.1-0.1,14.2-4.5,29.1-9.8l27.1-9.4l0.1,20.2l0.1,20.3l-1.1,2.1c-0.6,1.1-1.7,2.5-2.5,3c-0.8,0.4-17.6,6.4-37.3,13.2l-35.8,12.4H128h-4.3L88,226.6c-19.7-6.8-36.4-12.7-37.1-13.1c-0.8-0.4-2-1.7-2.7-2.8l-1.2-2l0.1-20.5l0.1-20.4l27.1,9.5c24.3,8.5,27.5,9.5,30.2,9.6c3.8,0,7.4-1.7,9.4-4.4c0.7-1,4.1-8,7.5-15.7c3.4-7.6,6.3-13.9,6.4-13.9C128.1,152.8,129.7,156.1,131.5,160.3z"/></g></g></g>
</svg>