<?xml version="1.0" encoding="utf-8"?>
<!-- Svg Vector Icons : http://www.onlinewebfonts.com/icon -->
<!DOCTYPE svg PUBLIC "-//W3C//DTD SVG 1.1//EN" "http://www.w3.org/Graphics/SVG/1.1/DTD/svg11.dtd">
<svg version="1.1" xmlns="http://www.w3.org/2000/svg" xmlns:xlink="http://www.w3.org/1999/xlink" x="0px" y="0px" viewBox="0 0 256 256" enable-background="new 0 0 256 256" xml:space="preserve">
<metadata> Svg Vector Icons : http://www.onlinewebfonts.com/icon </metadata>
<g><g><g><path fill="#000000" d="M84.3,20.3c-1.9,1-67.2,46.2-70.4,48.7c-2.6,2.1-3.9,4.8-3.9,8.3c0,3.1,1.2,5.9,3.2,7.8c1.7,1.5,73.6,45.2,75.6,45.9c0.8,0.3,2.6,0.4,4,0.3c3.8-0.3,6.8-2.3,8.6-5.7c2.3-4.4,1.9-6-3.9-18.4c-2.7-5.7-4.9-10.5-4.9-10.7c0-0.1,23-0.2,51.1-0.2l51,0.1l2.7,1.4c1.4,0.8,3.3,2.4,4.2,3.5c3.1,4.2,3.1,3.1,2.9,45.5l-0.1,38.3l-1.2,2.2c-1.5,2.9-3.2,4.7-6.1,6.2l-2.4,1.3l-58.6,0.2l-58.6,0.2l-3,1.4c-3.7,1.7-7,5-8.7,8.9c-1.3,2.6-1.3,3.1-1.3,10.2s0,7.6,1.3,10.2c1.8,3.8,4.7,6.9,8.5,8.7l3.2,1.5l58.4,0.1c39.9,0.1,59.7,0,62.4-0.4c24.6-3.2,44.3-22.9,47.4-47.4c0.3-2.5,0.5-19.2,0.5-43.3c0-43.2-0.1-44.8-2.9-53.1c-5.5-16.5-18.6-29.5-35-34.9c-8.4-2.8-7.8-2.8-65-2.8c-28.9,0-52.6-0.2-52.6-0.4s2-5.2,4.4-11c3.6-8.8,4.4-11.1,4.4-13.3c0-4.4-2.2-8-6-9.8C91.1,19.2,86.4,19.2,84.3,20.3z"/></g></g></g>
</svg>