<?xml version="1.0" encoding="utf-8"?>
<!-- Svg Vector Icons : http://www.onlinewebfonts.com/icon -->
<!DOCTYPE svg PUBLIC "-//W3C//DTD SVG 1.1//EN" "http://www.w3.org/Graphics/SVG/1.1/DTD/svg11.dtd">
<svg version="1.1" xmlns="http://www.w3.org/2000/svg" xmlns:xlink="http://www.w3.org/1999/xlink" x="0px" y="0px" viewBox="0 0 256 256" enable-background="new 0 0 256 256" xml:space="preserve">
<metadata> Svg Vector Icons : http://www.onlinewebfonts.com/icon </metadata>
<g><g><g><path fill="#000000" d="M120,10.4C105.9,12,95.8,15,84.1,20.7c-32.4,16-55.6,49.1-59.3,84.7c-0.5,4-1.1,7.2-1.8,8.5c-1.1,2.1-1.1,3.9-1.1,40c0,41.1-0.1,40,3.3,43.2c2.3,2.1,4.4,2.8,8.5,2.8h3.5l0.4,3.4c2,16.7,12.8,28.4,31.8,34.7c6.9,2.2,17.1,3.8,26.8,4.2c8,0.3,8.8,0.5,12.1,2.1l3.6,1.8l17.6-0.2c20.1-0.2,20.8-0.4,24.2-5.1c1.7-2.4,1.8-2.9,1.9-8.8c0.2-5.7,0.1-6.6-1.2-8.9c-0.8-1.5-2.4-3.5-3.6-4.4l-2.3-1.8l-17.3-0.2l-17.3-0.2v4.5v4.4h15.1c9.3,0,15.5,0.2,16.2,0.6c0.9,0.5,1.1,1.3,1.1,4.9c0,2.6-0.3,4.6-0.7,5c-0.5,0.5-5.1,0.7-16.8,0.7h-16.2l-0.9-1.7l-1-1.7l-12.1-0.4c-12.7-0.4-19.4-1.3-27.2-4c-14.1-4.7-22.9-14-24.5-25.8l-0.4-3.1h10.9c11.6,0,13.2-0.3,16-2.8c3.4-3.2,3.3-2.1,3.3-43.2c0-41.1,0.1-39.3-3.4-42.5c-2.8-2.7-3.8-2.9-12.2-2.9c-6,0-8-0.2-8-0.8c0.1-2.1,2.5-12,4.1-16.6c9.4-26.5,32.6-46.7,59.2-51.3c6.6-1.1,17.6-1.1,24,0c14.3,2.5,27.5,9.3,38.6,19.9c8.8,8.4,15.1,17.6,19.4,28.4c2.2,5.4,5,16,5,18.8v1.7h-8.3c-7.5,0-8.6,0.1-10.7,1.3c-1.3,0.8-3,2.4-3.8,3.8l-1.4,2.4v37.9c0,30.8,0.2,38.2,0.8,39.8c0.9,2.3,3.6,4.8,5.8,5.7c2.2,0.9,39.3,0.9,41.5,0c2.2-0.8,4.9-3.4,5.8-5.7c0.7-1.5,0.8-8.8,0.8-39.3c0-22.8-0.2-38-0.6-39.1c-0.3-0.9-0.9-5.2-1.5-9.4c-4.7-40.3-31-74.8-68.2-89.1C150.6,11.6,132.4,9,120,10.4z M140.7,20.3c20.2,3.1,37,11.4,52.1,26c14.3,13.7,24.2,31.3,28.4,50.2c2.8,13,3.1,18.3,3.4,57.3l0.2,36.7h-18h-18v-36.3V118h12.4h12.4v-3.6c0-5.4-1.6-15.1-3.6-21.9c-2.3-8-8.9-21.2-13.9-27.8c-13.8-18.5-33.6-30.7-55.6-34.3c-6.9-1.1-21.1-0.8-27.7,0.6C96,34.6,82.4,42,69.8,54.6c-16,16-24.6,34.9-26.5,58.5l-0.4,4.9h12.2h12.1v36.3v36.3h-18h-18v-36.1c0-32.1,0.1-36.2,0.9-37.1c0.6-0.7,1.1-3,1.5-7.4c1-12.4,4.2-24,9.7-35.3C61.7,36.9,101.9,14.5,140.7,20.3z"/></g></g></g>
</svg>