<?xml version="1.0" encoding="utf-8"?>
<!-- Svg Vector Icons : http://www.onlinewebfonts.com/icon -->
<!DOCTYPE svg PUBLIC "-//W3C//DTD SVG 1.1//EN" "http://www.w3.org/Graphics/SVG/1.1/DTD/svg11.dtd">
<svg version="1.1" xmlns="http://www.w3.org/2000/svg" xmlns:xlink="http://www.w3.org/1999/xlink" x="0px" y="0px" viewBox="0 0 256 256" enable-background="new 0 0 256 256" xml:space="preserve">
<metadata> Svg Vector Icons : http://www.onlinewebfonts.com/icon </metadata>
<g><g><path fill="#000000" d="M222.4,57.2H187V33.6c0-13-10.6-23.6-23.6-23.6H128c-13,0-23.6,10.6-23.6,23.6v23.6H63.1c-13,0-23.6,10.6-23.6,23.6c0,0,0,18.4,0,41.3C30.8,164,10,222.4,10,222.4c0,13,10.6,23.6,23.6,23.6h23.2l6.5-11.8l5.7,11.8h17.8l17.7-23.6L98.8,246h105.9c13,0,23.6-10.6,23.6-23.6c0,0,14.2-58.5,17.7-100.3c0-23.3,0-41.3,0-41.3C246,67.8,235.4,57.2,222.4,57.2z M216.5,222.4c0,6.5-5.3,11.8-11.8,11.8h-88.5l-5.9-29.5l-24.4,29.5h-17l-5.7-11.8l-6.1,11.8H33.6c-6.5,0-11.8-5.3-11.8-11.8c0,0,20.8-58.5,29.5-100.3h182.9C230.7,163.9,216.5,222.4,216.5,222.4z M234.2,116.2H51.3c0-20.1,0-35.4,0-35.4c0-6.5,5.3-11.8,11.8-11.8h41.3h11.8V57.2V33.6c0-6.5,5.3-11.8,11.8-11.8h35.4c6.5,0,11.8,5.3,11.8,11.8v23.6V69H187h35.4c6.5,0,11.8,5.3,11.8,11.8C234.2,80.8,234.2,95.8,234.2,116.2z"/></g></g>
</svg>