<?xml version="1.0" encoding="utf-8"?>
<!-- Svg Vector Icons : http://www.onlinewebfonts.com/icon -->
<!DOCTYPE svg PUBLIC "-//W3C//DTD SVG 1.1//EN" "http://www.w3.org/Graphics/SVG/1.1/DTD/svg11.dtd">
<svg version="1.1" xmlns="http://www.w3.org/2000/svg" xmlns:xlink="http://www.w3.org/1999/xlink" x="0px" y="0px" viewBox="0 0 256 256" enable-background="new 0 0 256 256" xml:space="preserve">
<metadata> Svg Vector Icons : http://www.onlinewebfonts.com/icon </metadata>
<g><g><path fill="#000000" d="M144.1,147.8H246v11.3H144.1V147.8z"/><path fill="#000000" d="M144.1,187.4H246v11.3H144.1V187.4z"/><path fill="#000000" d="M144.1,227H246v11.3H144.1V227z"/><path fill="#000000" d="M115.8,147.8h11.3v11.3h-11.3V147.8z"/><path fill="#000000" d="M115.8,187.4h11.3v11.3h-11.3V187.4z"/><path fill="#000000" d="M115.8,227h11.3v11.3h-11.3V227z"/><path fill="#000000" d="M189.4,17.6H25.3c0,0-30.2,5.4-5.7,39.6l67.9,67.9l5.7,113.2h11.3l-5.6-118.8c0,0-72.1-70.5-73.6-79.2c0,0-7.9-11.3,11.3-11.3c19.3,0,141.5,0,141.5,0s13.6,3,5.7,11.3c-8,8.3-67.9,79.2-67.9,79.2v17h11.3v-11.3l62.2-73.6C189.4,51.6,215.1,23.9,189.4,17.6z"/></g></g>
</svg>