<svg xmlns="http://www.w3.org/2000/svg" data-name="Layer 1" viewBox="0 0 250 250" x="0px" y="0px"><title>Android System</title><path d="M125,167.61a12.23,12.23,0,1,0,8.65,3.58A12.17,12.17,0,0,0,125,167.61Z"/><path d="M84.14,144.42l0,0L82.53,146a6.16,6.16,0,0,0,8.71,8.7l.12-.13,1.41-1.5.08.08a47.79,47.79,0,0,1,66.07,1.39,6.16,6.16,0,0,0,8.71-8.71,60,60,0,0,0-83.49-1.39Z"/><path d="M195.81,180a4.18,4.18,0,0,0-4.18,4.18v3.72a4.18,4.18,0,0,0,4.18,4.18h3.72a4.18,4.18,0,0,0,4.18-4.18v-3.72a4.18,4.18,0,0,0-4.18-4.18Z"/><path d="M184,129.53a83.51,83.51,0,0,0-118,0,6.11,6.11,0,1,1-8.64-8.64,95.73,95.73,0,0,1,130.25-4.64v15A6.13,6.13,0,0,1,184,129.53Zm19.73,33.77a3.26,3.26,0,0,1-3.25,3.26h-5.58a3.26,3.26,0,0,1-3.25-3.26V98.51a3.27,3.27,0,0,1,1.88-3,3,3,0,0,1,1.37-.31h5.58a3.26,3.26,0,0,1,3.25,3.26V163.3ZM217,105a5.72,5.72,0,0,1-8.07,0l-1.2-1.18V98.51a7.26,7.26,0,0,0-7.25-7.26h-5.58a7.26,7.26,0,0,0-.93.06l-.26,0a5.18,5.18,0,0,0-.66.14l-.12,0A118.71,118.71,0,0,0,41.09,105,5.7,5.7,0,1,1,33,96.89a130.24,130.24,0,0,1,184,0A5.72,5.72,0,0,1,217,105Z"/></svg>