<?xml version="1.0" encoding="utf-8"?>
<!-- Svg Vector Icons : http://www.onlinewebfonts.com/icon -->
<!DOCTYPE svg PUBLIC "-//W3C//DTD SVG 1.1//EN" "http://www.w3.org/Graphics/SVG/1.1/DTD/svg11.dtd">
<svg version="1.1" xmlns="http://www.w3.org/2000/svg" xmlns:xlink="http://www.w3.org/1999/xlink" x="0px" y="0px" viewBox="0 0 256 256" enable-background="new 0 0 256 256" xml:space="preserve">
<metadata> Svg Vector Icons : http://www.onlinewebfonts.com/icon </metadata>
<g><g><g><path fill="#000000" d="M57.1,11.4c-1.1,0.3-3,1.2-4.1,1.9c-1.2,0.7-9.7,8.9-19,18.2c-17.6,17.7-18.8,19.1-21.5,26c-1.9,4.9-2.5,8.5-2.5,15.1c0,7.2,0.8,10.9,3.8,18.9c17.3,46.2,47.4,86.6,86,115.6c25,18.8,56,34.1,76,37.5c5.5,1,18,0.8,22.1-0.2c7.2-1.8,7.5-2,25.7-20.5c9.3-9.4,17.6-18.2,18.7-19.6c5.3-7.4,5-16.1-0.8-20.9c-1.1-0.9-7.4-4.8-13.9-8.7c-6.6-3.8-16.9-9.8-22.9-13.4c-6-3.6-12.2-6.9-13.7-7.4c-6.5-2.3-13.1-2.2-17.6,0.1c-1.1,0.5-5,3.9-8.8,7.6c-7.4,7.1-9.1,8.4-11,8.4c-2.1,0-14.8-8-23.6-14.8c-15.5-12.1-32.4-31.7-42.9-49.9l-2.4-4l7.2-6.9c6.1-5.9,7.4-7.4,8.6-10.1c2.9-6.3,2.9-12.2,0-17.8C79.1,26.1,74.2,17.1,72.1,15C68.2,11.2,62.3,9.8,57.1,11.4z M66,22.2c0.7,1,1.2,2,1.2,2.2c0,0.4,22.6,43.4,24.3,46.2c0.6,0.9,1.2,2.7,1.4,3.9c0.5,3.8-0.9,6.1-7.5,12.4l-5.7,5.5l1.6,1.6c1.4,1.5,1.6,2,1.6,4.2c0,2.7-0.2,2.9-2.4,1.8c-1.7-0.9-2.7-3.2-2.3-5.3c0.2-1.5,0.2-1.5-0.5-0.6c-2.6,3.3-3,8.5-1,12.6c2.8,5.7,11.4,18.5,17.7,26.3c14.7,18.3,32.4,33.7,50.8,43.9l5,2.8l3.5-0.2c5.6-0.4,8.1-1.9,16.4-9.9c5-4.9,7.6-7.1,9-7.5c2.3-0.8,5.8-0.4,8.9,1c4.2,1.9,46.7,26.9,47.7,28.2c1.3,1.5,1.4,3.4,0.3,5.6c-1,2-34,35.4-36,36.5c-4.2,2.3-12.7,2.9-22,1.6c-16.1-2.4-45.2-16.2-67.2-32.1c-39-28-67.6-64.8-86.3-111.4C20.8,83,20,80,19.6,74.5c-0.3-5.4,0.7-11.2,3.2-16.1c1.6-3.4,2.9-4.9,17.8-19.9c8.9-9,16.9-16.7,17.8-17.1c0.9-0.5,2.7-0.9,4-1C64.6,20.4,64.8,20.6,66,22.2z"/></g></g></g>
</svg>