<?xml version="1.0" encoding="utf-8"?>
<!-- Svg Vector Icons : http://www.onlinewebfonts.com/icon -->
<!DOCTYPE svg PUBLIC "-//W3C//DTD SVG 1.1//EN" "http://www.w3.org/Graphics/SVG/1.1/DTD/svg11.dtd">
<svg version="1.1" xmlns="http://www.w3.org/2000/svg" xmlns:xlink="http://www.w3.org/1999/xlink" x="0px" y="0px" viewBox="0 0 256 256" enable-background="new 0 0 256 256" xml:space="preserve">
<metadata> Svg Vector Icons : http://www.onlinewebfonts.com/icon </metadata>
<g><g><g><path fill="#000000" d="M120.6,10.4c-20.1,1.7-40.6,11.6-54.8,26.7C44.9,59.2,37.2,89,44.7,118.2c3.3,12.7,9.5,24.5,26.3,49.6c12.4,18.5,40.7,57.6,54.8,75.6l2.1,2.7l5.8-7.5c33.8-44.2,61.1-83.9,70.9-103.1c8.2-16.1,11.2-34.7,8.4-52.3c-6.2-38.8-39-69.2-78.2-72.6C128.7,9.9,127.1,9.9,120.6,10.4z M134.6,19.7c15.7,1.4,29.4,6.8,41.2,16c25,19.7,35.2,53.9,25.1,84.5c-3.1,9.4-9.8,21.5-22.6,40.7c-15.9,23.8-49.8,70.3-50.7,69.4c-0.8-1-16.4-21.9-23.8-32.1c-28.9-39.6-44.2-64.1-48.8-77.8c-2.9-8.8-3.5-12.9-3.5-24.4c0-9.1,0.1-11.1,1-15.3c7.9-36.2,37.1-60.3,74.6-61.5C128.3,19.3,131.7,19.5,134.6,19.7z"/><path fill="#000000" d="M118.6,52.3c-15.2,3.9-27.4,16.5-30.8,31.9c-0.9,4.3-0.7,13.8,0.5,18.1c0.9,3.4,3.9,9.7,5.9,12.6c4.4,6.4,12.5,12.8,19.6,15.6c22.1,8.5,46.9-4.3,53.7-27.8c6-20.7-6.7-43-28.4-50C134.3,51.2,123.8,51,118.6,52.3z M138.7,62.2c9.8,3.5,16.5,10.6,19.7,20.9c0.9,2.8,1.1,4.6,1.1,9.1c0,9.8-2.5,16.1-9,22.6c-6.5,6.5-12.7,9-22.6,9c-4.6,0-6.2-0.2-9.1-1.1c-5.6-1.7-9.6-4.1-13.3-7.7c-6.1-6.1-8.6-12-8.9-21c-0.2-4.3-0.1-6.5,0.5-9.2c2.5-11.1,11.2-20.1,22.3-23.1C124.5,60.2,134,60.5,138.7,62.2z"/></g></g></g>
</svg>