<?xml version="1.0" encoding="utf-8"?>
<!-- Svg Vector Icons : http://www.onlinewebfonts.com/icon -->
<!DOCTYPE svg PUBLIC "-//W3C//DTD SVG 1.1//EN" "http://www.w3.org/Graphics/SVG/1.1/DTD/svg11.dtd">
<svg version="1.1" xmlns="http://www.w3.org/2000/svg" xmlns:xlink="http://www.w3.org/1999/xlink" x="0px" y="0px" viewBox="0 0 256 256" enable-background="new 0 0 256 256" xml:space="preserve">
<metadata> Svg Vector Icons : http://www.onlinewebfonts.com/icon </metadata>
<g><g><g><path fill="#000000" d="M84.7,10.4c-5.3,1.7-8.3,5.6-8.3,11.2v3.1h-3.7H69v3.7v3.7h3.7h3.7l-0.1,3.8l-0.1,3.8l-3.5,0.1L69,40v3.4v3.5h3.7h3.7l-0.1,3.8l-0.1,3.8l-3.5,0.1L69,54.7v3.4v3.5h3.7h3.7v3.2c0,4.3,1.6,7.4,5,9.7l2.4,1.6v14.9v14.9H70.2c-13,0-13.6,0-14.8,1c-1,0.8-1.2,1.3-1.2,3c0,5.3,8.9,133.7,9.3,134.4c0.3,0.5,1,1.1,1.6,1.3c1.5,0.6,42.6,0.6,44.2,0c0.6-0.2,1.4-0.8,1.7-1.4c0.5-0.9,9.2-128.1,9.2-134c0-2.1-0.2-2.6-1.2-3.4c-1.2-0.9-1.8-1-14.8-1H90.7V90.9V76.1l2.4-1.6c3.3-2.2,4.7-4.7,5-9.2l0.2-3.5l3.6-0.1l3.5-0.1v-3.4v-3.4l-3.5-0.1l-3.6-0.1v-3.7v-3.7l3.6-0.1l3.5-0.1v-3.4V40l-3.5-0.1l-3.6-0.1l-0.1-3.8L98,32.1h3.7h3.7v-3.7v-3.7h-3.7H98v-3.1c0-2.4-0.3-3.6-1.2-5.5C94.6,11.6,89.1,9,84.7,10.4z M89.3,17.9c1.8,1.3,1.8,2,1.8,25.2C91.1,67,91,67.9,89,68.7c-2.6,1-5-0.3-5.5-3c-0.1-0.8-0.2-11.6-0.1-23.8l0.1-22.3l1.3-1.1C86.2,17.2,88.1,17,89.3,17.9z M112.8,113.8c0,1-7.8,117.9-8.1,121.4l-0.3,3.4H87.2c-9.5,0-17.2-0.2-17.2-0.4c0-0.2-1.8-28.4-4.1-62.6c-2.3-34.2-4.1-62.2-4.1-62.3c0,0,11.5-0.1,25.6-0.1C107.7,113.2,112.8,113.4,112.8,113.8z"/><path fill="#000000" d="M159.5,91.5c-1.7,0.7-2,2-2,8.2v6l-2.8,0.2c-2.3,0.2-3,0.4-3.8,1.3c-0.8,1-0.9,1.6-0.6,8.7c0.3,9,1.1,15,3.6,28c3.6,18.8,3.3,14.2,3.5,58.5c0.1,22,0.2,40.6,0.4,41.1c0.5,2.3,1.8,2.4,18.2,2.4c16.5,0,17.7-0.2,18.2-2.4c0.1-0.6,0.3-19.4,0.4-41.8c0.2-45.2-0.1-40.8,3.5-59.2c2.6-13.4,3.2-18,3.5-26.5c0.2-7.1,0.2-7.7-0.6-8.7c-0.8-1-1.4-1.2-4-1.3l-3-0.2v-6.4c0-5.8-0.1-6.4-1-7.2c-0.9-0.8-1.9-0.9-16.7-1C167.6,91.2,160.1,91.3,159.5,91.5z M187,102.2v3.7h-11.3h-11.3v-3.7v-3.7h11.3H187V102.2z M194.2,115.2c-0.1,1.1-0.4,3.6-0.5,5.7c-0.4,4.5-1.2,9.8-3.2,21.2c-3.2,17.8-3.1,15.6-3.3,58l-0.2,38.6h-11h-11l-0.2-37.9c-0.2-41.9,0-39-3.5-58.4c-1.7-9.3-2.8-18-3.4-25.7l-0.3-3.3H176h18.4L194.2,115.2z"/></g></g></g>
</svg>