<?xml version="1.0" encoding="utf-8"?>
<!-- Svg Vector Icons : http://www.onlinewebfonts.com/icon -->
<!DOCTYPE svg PUBLIC "-//W3C//DTD SVG 1.1//EN" "http://www.w3.org/Graphics/SVG/1.1/DTD/svg11.dtd">
<svg version="1.1" xmlns="http://www.w3.org/2000/svg" xmlns:xlink="http://www.w3.org/1999/xlink" x="0px" y="0px" viewBox="0 0 256 256" enable-background="new 0 0 256 256" xml:space="preserve">
<metadata> Svg Vector Icons : http://www.onlinewebfonts.com/icon </metadata>
<g><g><g><path fill="#000000" d="M34.2,10.4c-0.6,0.2-1.2,1-1.5,1.6c-0.4,0.8-0.5,11.5-0.5,36.4v35.3h3.7h3.7V50.4V17.2h77.5h77.5V80v62.8h3.7h3.7V82.7V22.5l7.4,7.4l7.4,7.4V90v52.7h3.7h3.7V89c0-45.8-0.1-54-0.6-55.1c-0.8-1.5-22.2-22.8-23.7-23.6C198.4,9.7,35.6,9.7,34.2,10.4z"/><path fill="#000000" d="M46.9,28.3V32h29.5H106v-3.7v-3.7H76.5H46.9V28.3z"/><path fill="#000000" d="M124.4,33c-2.8,1.2-4.9,3.4-6.3,6.2c-1.4,2.9-1.4,4.9,0,7.8c1,2.1,4.8,6.2,5.9,6.2c0.2,0,0.4,5.1,0.4,11.3v11.3L119.1,90c-4.4,11.6-5.2,14.3-4.7,14.7c0.8,0.6,5.8,2.3,6,2c0.1-0.1,2.7-6.9,5.8-15.1l5.6-14.9V65.4V54.1h14.8h14.8v11.3v11.4l9.2,24l9.2,24v5.3v5.3h-31.3h-31.2l-5.7-13.3l-5.7-13.2l0-7.2c0-7.8-0.3-9.2-2.2-10c-1.6-0.7-67.9-0.7-69.5,0c-1.8,0.8-2.2,2.3-2.2,10.1v7.3l-11.1,25.8L10,160.6v41.1c0,29.2,0.1,41.4,0.5,42.2c0.3,0.6,1,1.4,1.7,1.7c1.6,0.7,112.2,0.7,113.8,0c0.6-0.3,1.4-1,1.7-1.7c0.4-0.7,0.5-7.6,0.5-21.6v-20.5h11.3h11.3v1.3c0,0.7,0.3,2.8,0.7,4.5c2.4,11.3,9.1,21.8,18.6,28.9l2.9,2.2h-18.7h-18.7v3.7v3.7l34.8-0.2c30-0.1,35.1-0.3,37.7-0.9c14.5-3.6,25.8-12.3,32.6-25c3.9-7.4,5.5-13.8,5.4-22.2c0-8.3-1.4-13.9-5.4-21.6c-6.6-12.7-18.8-22.1-32.8-25.1c-6.3-1.3-13.9-1.3-19.5,0.1l-1.1,0.3v-13.9v-13.9l-9.2-24l-9.2-24V64.6V53.4l1.2-0.6c3.1-1.6,6.2-6.5,6.2-9.6c0-3.8-4.3-9.4-8.1-10.5c-1.4-0.4-7.5-0.6-21.7-0.6C127.4,32,126.4,32,124.4,33z M167.8,40.3c0.6,0.6,0.9,1.5,0.9,2.8c0,1.2-0.3,2.2-0.9,2.8c-0.9,0.9-1.5,0.9-21.2,0.9c-19.7,0-20.4,0-21.2-0.9c-0.6-0.6-0.9-1.5-0.9-2.8c0-1.2,0.3-2.2,0.9-2.8c0.9-0.9,1.5-0.9,21.2-0.9C166.3,39.4,166.9,39.4,167.8,40.3z M98.6,102.1v3.7H69.1H39.5v-3.7v-3.7h29.5h29.5L98.6,102.1L98.6,102.1z M96.3,114.2c-0.2,0.6-4.5,10.5-9.5,22.1l-9,21l-29.3,0.1l-29.3,0.1l0.4-1c0.2-0.6,4.3-10.1,9-21.1c4.8-11,8.8-20.5,9-21.1l0.4-1h29.3h29.3L96.3,114.2z M110.6,138.3l8.2,19l-8.3,0.1c-4.5,0-12,0-16.5,0l-8.3-0.1l8.1-19.1c4.5-10.4,8.3-19,8.4-19C102.4,119.2,106.2,127.8,110.6,138.3z M179.8,148.4v5.7l-3.1,1.5c-12.5,6.1-22.3,18.9-25.3,32.9c-0.4,1.8-0.7,3.8-0.7,4.5v1.3h-11.3h-11.3v-16.9v-16.9l-3.7-8.6c-2-4.8-3.7-8.8-3.7-9c0-0.2,13.3-0.4,29.5-0.4h29.5V148.4z M209.4,158.9c4.6,1.3,11.1,4.6,14.6,7.4c6.2,5,11.5,13.2,13.6,21c1.4,5.3,1.7,13.2,0.6,18.5c-3.8,20.3-21,33.8-41.8,32.9c-6.6-0.3-11.4-1.5-16.8-4.2c-7.7-3.8-13.7-9.8-17.5-17.5c-3.4-6.8-4.2-10.3-4.2-18.7c0-7.8,0.7-11.3,3.4-17.3c5.4-11.9,16.6-20.5,29.7-22.8C195.1,157.3,205.4,157.7,209.4,158.9z M76.5,201.8v36.9H46.9H17.4v-36.9v-36.9h29.5h29.5L76.5,201.8L76.5,201.8z M120.8,201.8v36.9h-18.5H83.8v-36.9v-36.9h18.5h18.5V201.8z"/><path fill="#000000" d="M54.9,121c-2.3,0.6-6.1,2.9-7.6,4.5c-2.7,3-3.8,6-3.8,9.8c0,3,0.2,3.8,1.5,6.4c3.9,7.2,11.8,10.2,18.5,7c3.7-1.7,5.8-3.7,7.5-7.2c2.7-5.4,1.8-11.1-2.4-15.9C65.6,122.1,59.1,119.9,54.9,121z M62.5,129.2c2,1.5,3,3.7,2.7,6.8c-0.3,4.6-3,7-7.8,6.6c-4.6-0.3-7-3-6.6-7.8c0.2-3,1.2-4.8,3.6-6C56.4,127.6,60.7,127.9,62.5,129.2z"/><path fill="#000000" d="M194.6,168.6v3.7h3.7h3.7v-3.7v-3.7h-3.7h-3.7V168.6z"/><path fill="#000000" d="M224.1,199.8c0,5.4-3.2,12.5-7.4,16.7c-4.2,4.2-11.4,7.4-16.7,7.4h-1.8v3.7c0,4.3-0.2,4.2,5.7,3c13.4-2.6,24.3-13.5,26.9-26.9c1.1-5.9,1.2-5.6-3-5.6h-3.7V199.8L224.1,199.8z"/><path fill="#000000" d="M32.2,227.6v3.7h14.8h14.8v-3.7V224H46.9H32.2V227.6z"/><path fill="#000000" d="M98.6,176v3.7h3.7h3.7V176v-3.7h-3.7h-3.7V176z"/><path fill="#000000" d="M98.6,190.7v3.7h3.7h3.7v-3.7V187h-3.7h-3.7V190.7z"/><path fill="#000000" d="M98.6,205.5v3.7h3.7h3.7v-3.7v-3.7h-3.7h-3.7V205.5z"/><path fill="#000000" d="M46.9,43.1v3.7h14.8h14.8v-3.7v-3.7H61.7H46.9V43.1z"/></g></g></g>
</svg>