<?xml version="1.0" encoding="utf-8"?>
<!-- Svg Vector Icons : http://www.onlinewebfonts.com/icon -->
<!DOCTYPE svg PUBLIC "-//W3C//DTD SVG 1.1//EN" "http://www.w3.org/Graphics/SVG/1.1/DTD/svg11.dtd">
<svg version="1.1" xmlns="http://www.w3.org/2000/svg" xmlns:xlink="http://www.w3.org/1999/xlink" x="0px" y="0px" viewBox="0 0 256 256" enable-background="new 0 0 256 256" xml:space="preserve">
<metadata> Svg Vector Icons : http://www.onlinewebfonts.com/icon </metadata>
<g><g><g><path fill="#000000" d="M68.8,11.1c-2.9,1.3-5.8,4.5-7,7.5c-0.8,2.2-0.9,5.1-0.9,109.9v107.6l1.2,2.3c1.5,2.9,4.1,5.4,6.8,6.6c2,0.9,2.8,1,59,1h56.9l2.3-1.1c2.9-1.3,5.8-4.5,7-7.5c0.8-2.1,0.9-3.6,0.9-17.8V204l-1.3-1.1c-1.6-1.3-3-1.4-4.6-0.2l-1.2,1l-0.1,15.9c-0.1,15.3-0.2,15.9-1.1,17.1c-1.9,2.5,0,2.5-59.7,2.3l-55.2-0.1l-1.3-1c-0.7-0.5-1.5-1.7-1.8-2.5c-0.8-2.3-0.8-212.4,0-214.7c0.3-0.9,1.2-2,1.8-2.5l1.3-1L127,17c59.7-0.1,57.8-0.2,59.7,2.3l1,1.3l0.1,76.7l0.1,76.7l1.2,0.9c1.6,1.3,3.1,1.2,4.7-0.1l1.3-1.1V97.3c0-74.1,0-76.5-0.9-78.7c-1.2-3-4.1-6.1-7-7.5l-2.3-1.1H128H71.1L68.8,11.1z"/><path fill="#000000" d="M107.4,28c-3.6,0.2-4.4,0.4-5.3,1.3c-2.7,2.5-2.7,5.2-0.1,7.8l1.5,1.5h24.3h24.3l1.5-1.5c2.1-2.1,2.4-3.7,1.3-5.8c-1.9-3.5-0.9-3.4-23.3-3.4C120.6,27.8,109.7,27.8,107.4,28z"/><path fill="#000000" d="M115.3,213.8c-1.5,0.8-3.5,2.8-4.2,4.1c-0.8,1.5-0.9,9.6-0.1,11.1c0.8,1.5,2.8,3.5,4.2,4.3c1,0.5,3.7,0.6,12.4,0.6c12,0,12.4-0.1,14.8-2.6c2-2.1,2.3-3.1,2.3-7.7s-0.3-5.6-2.3-7.7c-2.4-2.5-2.8-2.6-14.9-2.6C120.2,213.3,115.9,213.5,115.3,213.8z M137.2,223.6v3h-9.7h-9.7v-3v-3h9.7h9.7V223.6z"/></g></g></g>
</svg>