<?xml version="1.0" encoding="utf-8"?>
<!-- Svg Vector Icons : http://www.onlinewebfonts.com/icon -->
<!DOCTYPE svg PUBLIC "-//W3C//DTD SVG 1.1//EN" "http://www.w3.org/Graphics/SVG/1.1/DTD/svg11.dtd">
<svg version="1.1" xmlns="http://www.w3.org/2000/svg" xmlns:xlink="http://www.w3.org/1999/xlink" x="0px" y="0px" viewBox="0 0 1000 1000" enable-background="new 0 0 1000 1000" xml:space="preserve">
<metadata> Svg Vector Icons : http://www.onlinewebfonts.com/icon </metadata>
<g><path d="M594.1,907H25c-8.3,0-15,6.8-15,15v43.8c0,8.3,6.8,15,15,15h569.1c8.3,0,15-6.8,15-15V922C609.1,913.7,602.3,907,594.1,907z"/><path d="M51.1,883h79c0.7,0.1,1.4,0.1,2.1,0.1c0.7,0,1.4-0.1,2.1-0.1h113.3c0.7,0.1,1.4,0.1,2.1,0.1s1.4-0.1,2.1-0.1h114.4c0.7,0.1,1.4,0.1,2.1,0.1s1.4-0.1,2.1-0.1h114.3c0.7,0.1,1.4,0.1,2.1,0.1c0.7,0,1.4-0.1,2.1-0.1h77.3c8.3,0,15-6.7,15-15v-19.6c0-8.3-6.8-15-15-15h-34.3c0-12.8-5.3-24.3-13.9-32.5v-64c-1.8,0.4-3.6,0.7-5.4,0.7c-2.2,0-4.4-0.3-6.5-0.9c-7.5-2.2-13.4-7.9-15.8-15.4l-64.8-202.5c-2.3-7.4-0.9-15.3,3.7-21.4l-107.7-65.2c-7.1-4.3-18.6-4.3-25.7,0L49,581.9c-7,4.3-12.8,14.5-12.6,22.8l0.3,24.7c0.1,8.3,6.9,15,15.2,15l49.2-0.1v156.5c-8.5,8.2-13.9,19.7-13.9,32.5H51.1c-8.3,0-15,6.7-15,15V868C36.1,876.2,42.9,883,51.1,883z M399.5,644l56-0.1v156.9c-8.5,8.2-13.9,19.7-13.9,32.5h-28.2c0-12.8-5.4-24.3-13.9-32.5V644z M309.1,494.2c25.4,0,46,20.6,46,46c0,25.4-20.6,46-46,46c-25.4,0-46-20.6-46-46C263.1,514.8,283.7,494.2,309.1,494.2z M163.5,644.3l55-0.1v156.6c-8.6,8.2-13.9,19.7-13.9,32.5h-27.2c0-12.8-5.4-24.3-13.9-32.5L163.5,644.3L163.5,644.3z"/><path d="M544,382.1h56.6c25.6-17.2,55.9-28.9,91.2-28.9c15.5,0,31.4,2.3,47.3,7c9.9,2.9,16.6,11.9,16.8,22h37.2l14.5-12.1c6-5,14.1-6.7,21.5-4.5c7.5,2.2,13.4,7.9,15.8,15.4l0.4,1.2h45.2c0.6,0,1.1,0.1,1.7,0.1c0.6,0,1.1-0.1,1.7-0.1h61.8c6.6,0,12-5.4,12-12v-15.7c0-6.6-5.4-12-12-12h-27.4c0-10.2-4.3-19.4-11.1-26V191l39,0c6.6,0,12-5.4,12-12v-19.3c0-6.6-4.6-14.8-10.3-18.2L760.1,21.8c-5.6-3.4-14.9-3.4-20.5,0L542.3,141.5c-5.6,3.4-10.2,11.6-10.1,18.2l0.3,19.8c0.1,6.6,5.5,12,12.1,12l39.3-0.1v125.1c-6.8,6.6-11.1,15.7-11.1,26H544c-6.6,0-12,5.4-12,12v15.7C532.1,376.7,537.5,382.1,544,382.1z M822.5,191.1l44.8-0.1v125.4c-6.8,6.5-11.1,15.7-11.1,26h-22.5c0-10.2-4.3-19.4-11.1-26V191.1z M750.2,71.3c20.3,0,36.8,16.4,36.8,36.8c0,20.3-16.5,36.8-36.8,36.8c-20.3,0-36.8-16.5-36.8-36.8C713.5,87.8,729.9,71.3,750.2,71.3z M633.8,191.3l43.9-0.1v125.2c-6.8,6.5-11.1,15.7-11.1,26h-21.7c0-10.2-4.3-19.4-11.1-26V191.3z"/><path d="M523.2,460.2h4c12.6-19.5,29-40.6,49.1-58.9h-53.2c-6.6,0-12,5.4-12,12v35C511.1,454.9,516.6,460.2,523.2,460.2z"/><path d="M735.3,405.9c-1.6,0.2-39.2,6.2-70.2,54.3h34.4l70.7-58.9h-23.4C743.5,403.8,739.6,405.4,735.3,405.9z"/><path d="M978,401.3H851.5l18.8,58.9H978c6.6,0,12-5.4,12-12v-35C990,406.7,984.6,401.3,978,401.3z"/><path d="M675.8,578l-74.1-21.5c10.8-37.2,19.4-60.2,25.8-75.1c38.7-91.3,105.2-98.7,105.2-98.7c-144.5-42-216.3,149-216.3,149l-68.6-19.9l64.8,202.6L675.8,578z"/><path d="M659.4,524.2l74.2,21.5c-10.8,37.2-19.5,60.2-25.8,75.1c-38.7,91.2-105.2,98.7-105.2,98.7c144.5,42,216.3-149,216.3-149l68.6,19.9L822.6,388L659.4,524.2z"/></g>
</svg>