<svg viewBox="0 0 32 32" version="1.1" x="0px" y="0px"><g transform="translate(0,-1020.3622)"><path style="color:#000000;font-style:normal;font-variant:normal;font-weight:normal;font-stretch:normal;font-size:medium;line-height:normal;font-family:sans-serif;text-indent:0;text-align:start;text-decoration:none;text-decoration-line:none;text-decoration-style:solid;text-decoration-color:#000000;letter-spacing:normal;word-spacing:normal;text-transform:none;direction:ltr;block-progression:tb;writing-mode:lr-tb;baseline-shift:baseline;text-anchor:start;white-space:normal;clip-rule:nonzero;display:inline;overflow:visible;visibility:visible;opacity:1;isolation:auto;mix-blend-mode:normal;color-interpolation:sRGB;color-interpolation-filters:linearRGB;solid-color:#000000;solid-opacity:1;fill:#000000;fill-opacity:1;fill-rule:nonzero;stroke:none;stroke-width:0.99999982;stroke-linecap:butt;stroke-linejoin:miter;stroke-miterlimit:4;stroke-dasharray:none;stroke-dashoffset:0;stroke-opacity:1;color-rendering:auto;image-rendering:auto;shape-rendering:auto;text-rendering:auto;enable-background:accumulate" d="M 4 4 C 2.9006478 4 2 4.9007 2 6 L 2 20 C 2 21.0993 2.9006478 22 4 22 L 12 22 L 12 25 L 10 25 C 8.9006454 25 8 25.9007 8 27 L 8 28 L 8.5 28 L 24 28 L 24 27 C 24 25.9007 23.099355 25 22 25 L 20 25 L 20 22 L 28 22 C 29.099352 22 30 21.0993 30 20 L 30 6 C 30 4.9007 29.099352 4 28 4 L 4 4 z M 4 5 L 28 5 C 28.562532 5 29 5.4375 29 6 L 29 20 C 29 20.5625 28.562532 21 28 21 L 4 21 C 3.4374682 21 3 20.5625 3 20 L 3 6 C 3 5.4375 3.4374682 5 4 5 z M 4 6 L 4 6.5 L 4 20 L 13.5 20 L 24.5 20 L 28 20 L 28 6 L 4 6 z M 5 7 L 27 7 L 27 14.941406 C 26.95651 14.924185 26.917589 14.897709 26.873047 14.882812 C 26.179024 14.651513 25.411475 14.714994 24.765625 15.058594 C 24.104895 15.410194 23.691251 15.951384 23.283203 16.333984 C 23.079932 16.524584 22.87581 16.683756 22.667969 16.785156 C 22.463844 16.885156 22.247524 16.928297 22.066406 16.904297 C 21.885711 16.880297 21.683412 16.781859 21.492188 16.630859 C 21.29821 16.477659 21.108676 16.270169 20.896484 16.042969 C 20.683875 15.815369 20.445206 15.564722 20.132812 15.357422 C 19.816512 15.147422 19.425114 14.987453 18.984375 15.001953 C 18.543337 15.015953 18.163544 15.201181 17.861328 15.425781 C 17.563005 15.647681 17.338424 15.903306 17.134766 16.128906 C 16.931452 16.354106 16.74579 16.552053 16.554688 16.689453 C 16.367704 16.823853 16.165816 16.900391 16 16.900391 C 15.834184 16.900391 15.632297 16.823353 15.445312 16.689453 C 15.254209 16.552053 15.06855 16.354106 14.865234 16.128906 C 14.661576 15.903306 14.436995 15.647681 14.138672 15.425781 C 13.836315 15.201081 13.456228 15.016353 13.015625 15.001953 C 12.575523 14.987953 12.183715 15.147322 11.867188 15.357422 C 11.554794 15.564722 11.316125 15.815369 11.103516 16.042969 C 10.891324 16.270169 10.70179 16.477659 10.507812 16.630859 C 10.316453 16.781959 10.113844 16.880397 9.9335938 16.904297 C 9.7530803 16.928297 9.5364206 16.885256 9.3320312 16.785156 C 9.1241897 16.683756 8.9200695 16.524584 8.7167969 16.333984 C 8.3087493 15.951384 7.895105 15.410194 7.234375 15.058594 C 6.5885247 14.714994 5.8209763 14.651513 5.1269531 14.882812 C 5.0825354 14.897631 5.0433913 14.922332 5 14.939453 L 5 7 z M 6 8 L 6 9 L 13 9 L 13 8 L 6 8 z M 21 8 L 21 9 L 22 9 L 22 8 L 21 8 z M 23 8 L 23 9 L 24 9 L 24 8 L 23 8 z M 25 8 L 25 9 L 26 9 L 26 8 L 25 8 z M 6 10 L 6 11 L 11 11 L 11 10 L 6 10 z M 6.1152344 15.753906 C 6.3433506 15.772644 6.5680919 15.836306 6.765625 15.941406 C 7.182503 16.163306 7.5507965 16.612053 8.0332031 17.064453 C 8.2751577 17.291253 8.5539046 17.517394 8.8945312 17.683594 C 9.2386101 17.851594 9.641961 17.953084 10.066406 17.896484 C 10.489166 17.840484 10.842783 17.642016 11.128906 17.416016 C 11.412414 17.192216 11.630892 16.943962 11.833984 16.726562 C 12.036659 16.509562 12.227412 16.320506 12.421875 16.191406 C 12.612204 16.065106 12.816443 15.9947 12.984375 16 C 13.153378 16.01 13.353925 16.090016 13.541016 16.228516 C 13.732141 16.370716 13.917997 16.571628 14.123047 16.798828 C 14.328439 17.026228 14.557215 17.283353 14.861328 17.501953 C 15.169562 17.723553 15.555896 17.900391 16 17.900391 C 16.444104 17.900391 16.830438 17.723553 17.138672 17.501953 C 17.442784 17.283353 17.671561 17.026228 17.876953 16.798828 C 18.082003 16.571628 18.267859 16.370716 18.458984 16.228516 C 18.646216 16.089416 18.847057 16.0054 19.015625 16 C 19.18292 15.99 19.387568 16.065006 19.578125 16.191406 C 19.772588 16.320506 19.963341 16.509562 20.166016 16.726562 C 20.369108 16.943962 20.587586 17.192216 20.871094 17.416016 C 21.157352 17.642116 21.511279 17.840184 21.933594 17.896484 C 22.357434 17.952484 22.761125 17.851494 23.105469 17.683594 C 23.446095 17.517394 23.724842 17.291253 23.966797 17.064453 C 24.449203 16.612053 24.817497 16.163306 25.234375 15.941406 C 25.629441 15.731206 26.132106 15.690531 26.556641 15.832031 C 26.715086 15.884971 26.86238 15.970647 27 16.070312 L 27 19 L 24.5 19 L 13.5 19 L 5 19 L 5 16.070312 C 5.138016 15.970528 5.2848459 15.884911 5.4433594 15.832031 C 5.6556268 15.761281 5.8871181 15.735169 6.1152344 15.753906 z M 13 22 L 19 22 L 19 25 L 13 25 L 13 22 z M 10 26 L 12.173828 26 L 19.826172 26 L 22 26 C 22.562655 26 23 26.4374 23 27 L 9 27 C 9 26.4374 9.437345 26 10 26 z " transform="translate(0,1020.3622)"/></g></svg>