<svg viewBox="0 0 16.933333 16.933333" version="1.1" x="0px" y="0px"><g><path style="color:#000000;paint-order:fill markers stroke;" d="m 8.4348832,1.0431468 a 0.2646193,0.2646193 0 0 0 -0.06305,0.01601 l -7.41013095,2.890876 a 0.2646193,0.2646193 0 0 0 -0.01603,0.0098 0.26459284,0.26459284 0 0 0 -0.04186,0.02532 0.2646193,0.2646193 0 0 0 -0.02585,0.01963 0.26459284,0.26459284 0 0 0 -0.04909,0.06046 0.2646193,0.2646193 0 0 0 -0.0036,0.0083 0.26459284,0.26459284 0 0 0 -0.02479,0.07028 0.2646193,0.2646193 0 0 0 -0.0026,0.02016 0.26459284,0.26459284 0 0 0 -0.0041,0.03204 v 8.5413632 a 0.26459284,0.26459284 0 0 0 0.16899,0.245473 l -0.0011,0.0026 7.41013195,2.888809 a 0.26461782,0.26461782 0 0 0 0.191726,0 l 7.4080648,-2.888809 v -5.29e-4 a 0.26459284,0.26459284 0 0 0 0.167953,-0.24754 V 4.1960268 a 0.26459284,0.26459284 0 0 0 -0.0021,-0.01601 0.2646193,0.2646193 0 0 0 -0.0036,-0.02997 0.26459284,0.26459284 0 0 0 -0.0072,-0.03256 0.2646193,0.2646193 0 0 0 -0.01757,-0.04134 0.26459284,0.26459284 0 0 0 -0.0062,-0.01344 0.2646193,0.2646193 0 0 0 -0.04083,-0.05271 0.2646193,0.2646193 0 0 0 -0.04961,-0.03824 0.26459284,0.26459284 0 0 0 -0.01394,-0.0078 0.2646193,0.2646193 0 0 0 -0.02687,-0.01394 l -2.626802,-1.025295 -0.04134,-0.103873 -0.111623,0.04444 -2.374612,-0.926591 v -5.29e-4 h -5.29e-4 L 8.5635562,1.0591248 a 0.2646193,0.2646193 0 0 0 -0.12868,-0.01601 z m 0.03256,0.545722 1.6226938,0.633058 -6.6809528,2.607161 h -5.29e-4 l -1.622696,-0.633055 z m 2.3498058,0.916769 1.654733,0.645462 -6.6204878,2.630417 -1.713647,-0.668199 z m 2.378745,0.928142 1.953434,0.762253 -6.6819848,2.605611 -1.892456,-0.737963 z m 2.41647,1.148288 V 12.55704 L 8.7315172,15.242238 V 7.2672658 Z m -14.2895278,0.0011 1.917777,0.748298 v 2.997851 a 0.2646193,0.2646193 0 0 0 0.167955,0.245989 l 1.930179,0.753984 a 0.2646193,0.2646193 0 0 0 0.361229,-0.245988 v -2.672278 l 0.15245,-0.06046 2.349291,0.916254 v 7.9744592 l -6.878883,-2.684213 z m 2.447477,0.955011 1.438205,0.560708 a 0.2646193,0.2646193 0 0 0 -0.03773,0.132296 v 2.465049 l -1.400479,-0.548822 z" fill="#000000" fill-rule="evenodd" stroke-width="1" stroke-linejoin="round"/></g></svg>