<svg xmlns="http://www.w3.org/2000/svg" xmlns:xlink="http://www.w3.org/1999/xlink" version="1.1" x="0px" y="0px" viewBox="0 0 52 65" style="enable-background:new 0 0 52 52;" xml:space="preserve"><g><path d="M30.2148228,6.8806767c0.2422886,0.1405869,0.5469799,0.0546865,0.6835938-0.1811523   c0.1386719-0.2387695,0.0576172-0.5444336-0.1816406-0.6831055l-1.6328125-0.9487305   c-0.2382813-0.1376953-0.5449219-0.0595703-0.6835938,0.1811523c-0.1386719,0.2387695-0.0576172,0.5444336,0.1816406,0.6831055   L30.2148228,6.8806767z"/><path d="M46.3339653,25.3338013c-0.0063477-0.0036621-0.0134277-0.0056763-0.0198364-0.0093384l-3.1188354-1.8163452   c-0.4002075-0.2330322-0.831604-0.3937378-1.2824097-0.5011597l-0.0281372-10.2180786   c-0.0009766-0.1782227-0.0957031-0.3427734-0.2509766-0.4321289c-0.0039673-0.0023193-0.0088501-0.0012207-0.0128784-0.003418   l-9.0095825-5.2358394c-0.2382813-0.1381836-0.5449219-0.059082-0.6835957,0.1806641   c-0.1386719,0.2387695-0.0576172,0.5449219,0.1816425,0.6835938l8.2744141,4.8085933l-6.7472534,3.8955688l-16.7146015-9.713501   l6.7470093-3.895447l3.1474609,1.8286135c0.2363281,0.137207,0.5439453,0.0585938,0.6835938-0.1811523   c0.1386719-0.2387695,0.0576172-0.5444336-0.1816406-0.6831055l-3.3974609-1.9741213   c-0.1523438-0.0898438-0.3447266-0.0898438-0.5009766-0.0009766L3.164042,13.7610474   c-0.1785357,0.1033478-0.25,0.3172197-0.25,0.4326172c0,0.0003662,0.0002441,0.0006104,0.0002441,0.0009766   S2.914042,14.1952515,2.914042,14.1956177L2.9794717,39.208313c0,0.1777344,0.0947266,0.3417969,0.2490234,0.4306641   l17.7119141,10.2924805c0.0010376,0.0006104,0.0023193,0.0003052,0.0033569,0.0009155   c0.0006714,0.0003662,0.0008545,0.0011597,0.0015259,0.0015259c0.0771484,0.0444336,0.1630859,0.0664063,0.2490234,0.0664063   s0.1728516-0.0224609,0.25-0.0668945l8.7815552-5.072937c0.131958,0.0970459,0.2606812,0.1983643,0.4030151,0.2814331   l3.1484394,1.8334961c0.0019531,0.0009766,0.0029297,0.0014648,0.0039063,0.0019531v0.0004883l0.0025024-0.0042725   c0.0066528,0.0039063,0.0122681,0.0092163,0.0189819,0.0130615c2.0453568,1.176487,4.5014801,0.5783157,6.5449219-0.6015625   c4.8330078-2.7910156,8.7529297-9.5878906,8.7382813-15.1523438   C49.0781059,28.4451294,48.1005669,26.3504028,46.3339653,25.3338013z M29.5585728,20.1970215l3.5781269-2.0663452v3.5947266   l-3.5781269,2.1000977V20.1970215z M29.0583286,19.3291626l-16.713623-9.7131348l3.5800781-2.0668941l16.7139282,9.7128906   L29.0583286,19.3291626z M28.0603428,19.9053955l-6.9343872,4.0036011   c-6.0624304-3.5230179-10.3335514-6.005064-16.7148438-9.7133789l6.934998-4.0039673L28.0603428,19.9053955z M3.9784951,38.918766   l-0.0625-23.854496l16.7088013,9.7097778c0.0886631,32.7225075,0.0579777,21.3972626,0.0646362,23.8551636L3.9784951,38.918766z    M21.6257725,24.7781982l6.9328003-4.0036621v3.9244995c0,0.1791992,0.0957031,0.3447323,0.2519531,0.434082   c0.1486073,0.0857353,0.3410187,0.0910454,0.5009766-0.0029297l4.5781269-2.6875   c0.1533203-0.0898438,0.2470703-0.2539063,0.2470703-0.4311523v-4.458374l6.75-3.8980713l0.0253906,9.2124634   c-6.6296539-0.248373-14.0760307,10.4325218-12.8853779,17.9714966c0.2351208,1.481266,0.8089485,2.6154099,1.4191284,3.3170776   l-7.753479,4.4794312C21.6855106,46.1804848,21.7171001,57.4981766,21.6257725,24.7781982z M29.0270176,40.7954102   c-1.412674-8.1666374,8.2364101-19.5883274,13.6643696-16.4230347l0.6015625,0.3496094   c-5.9127808,0.5596809-12.2640076,9.2422523-12.2490253,16.3496094c0.0062599,1.4552193,0.2958965,2.6830482,0.6894531,3.5561523   C30.2210808,43.7062759,29.4141293,43.0516167,29.0270176,40.7954102z M39.8476372,45.5188599   c-2.1220703,1.2255859-4.0917969,1.4379883-5.5458984,0.6010742c-1.6886406-0.9714737-2.2483597-3.0831261-2.2539063-5.050293   c-0.0248489-8.3260727,8.8507233-17.7422638,13.796875-14.8608398l0.0006104-0.0010376   c1.4373779,0.8337402,2.2337646,2.6185303,2.2406006,5.0278931C48.1005669,36.4802856,44.4042778,42.8880005,39.8476372,45.5188599   z"/><path d="M42.0595512,32.8079224c-0.7441406,0.0385742-1.5419922,0.2597656-2.4238281,0.6733398   c0-0.0195313,0-0.0395508,0-0.0595703l-0.0058594-1.4150391c0-0.8344116-0.9595375-0.7921295-1.2861328-0.2197266   c-2.1223259,3.6712952-2.6808167,4.6296539-3.5029297,6.0673828c-0.2578125,0.4443359-0.1162109,0.8310547,0.1386719,1.0170898   c2.4359093,1.3905106,3.1333809,1.795475,3.5380859,2.0107422c0.2448807,0.1683578,0.5792274,0.170845,0.8828125-0.1347656   c0.1660156-0.1777344,0.2529297-0.4023438,0.2529297-0.6518555l-0.0048828-1.9970703l0.0361328-0.019043   c0.6582031-0.3452148,1.2792969-0.6713867,1.890625-0.8881836c0.8144531-0.2929688,1.4296875-0.2915039,1.8886719,0.0175781   c0.2783203,0.1767578,0.5058594,0.456543,0.7089844,0.7304688c0.2041016,0.2446289,0.5283203,0.2988281,0.8134766,0.1362305   l0.1533203-0.1157227c0.1914063-0.1801758,0.2890625-0.4091797,0.2890625-0.6777344   c0.0048828-1.0102539-0.1289063-1.8500977-0.4082031-2.5693359C44.4999809,33.3889771,43.4872856,32.7390747,42.0595512,32.8079224   z M44.0116997,36.3723755c-0.7304688-0.4921875-1.6376953-0.5322266-2.7724609-0.1225586   c-0.6767578,0.2397461-1.359375,0.5976563-2.0195313,0.9443359l-0.1982422,0.1064453   c-0.3476563,0.2006836-0.375,0.4658203-0.3740234,0.7216797l0.0048828,1.793457   c-0.1806145-0.1010704-0.4038277-0.2283287-2.8535156-1.621582c0.8393669-1.4683571,2.1292419-3.6901169,2.8349609-4.9106445   c0.0022774,0.2315331,0.0070953,0.5186081,0.0019531,0.8369141c0.0019531,0.3154297,0.1513672,0.4716797,0.2763672,0.5473633   c0.1796875,0.1088867,0.3876953,0.1054688,0.6259766-0.0170898c0.9804688-0.5288086,1.8222656-0.8051758,2.5751953-0.8442383   c0.9951172-0.0463867,1.6132813,0.3500977,1.9755859,1.2705078c0.1845703,0.4741211,0.2919922,1.0239258,0.3525391,1.6391602   C44.3115044,36.5906372,44.1689262,36.4719849,44.0116997,36.3723755z"/></g><text x="0" y="67" fill="#000000" font-size="5px" font-weight="bold" font-family="'Helvetica Neue', Helvetica, Arial-Unicode, Arial, Sans-serif">Created by Brickclay</text><text x="0" y="72" fill="#000000" font-size="5px" font-weight="bold" font-family="'Helvetica Neue', Helvetica, Arial-Unicode, Arial, Sans-serif">from the Noun Project</text></svg>