<svg xmlns="http://www.w3.org/2000/svg" viewBox="0 0 25 25" x="0px" y="0px"><g><path d="M19.167,2.556H5.833A3.837,3.837,0,0,0,2,6.389v8.356a3.838,3.838,0,0,0,3.833,3.833h7.6l4.565,3.753a.5.5,0,0,0,.318.113.487.487,0,0,0,.213-.048.5.5,0,0,0,.287-.452V18.578h.355A3.838,3.838,0,0,0,23,14.745V6.389A3.837,3.837,0,0,0,19.167,2.556ZM22,14.745a2.836,2.836,0,0,1-2.833,2.833h-.855a.5.5,0,0,0-.5.5v2.808l-3.887-3.195a.5.5,0,0,0-.318-.113H5.833A2.836,2.836,0,0,1,3,14.745V6.389A2.836,2.836,0,0,1,5.833,3.556H19.167A2.836,2.836,0,0,1,22,6.389ZM15.942,9.174l-2.007-.5-.964-1.7a.512.512,0,0,0-.471-.253.492.492,0,0,0-.471.253l-.964,1.7-2.007.5a.5.5,0,0,0-.265.8l1.288,1.568-.13,2.076a.5.5,0,0,0,.717.482l1.832-.888,1.832.888a.506.506,0,0,0,.218.049.492.492,0,0,0,.278-.085.5.5,0,0,0,.221-.446l-.13-2.076,1.288-1.568a.5.5,0,0,0-.265-.8Zm-1.921,1.887a.5.5,0,0,0-.113.349L14,12.828l-1.279-.62a.509.509,0,0,0-.436,0L11,12.828l.089-1.418a.5.5,0,0,0-.113-.349l-.912-1.109,1.449-.363a.5.5,0,0,0,.314-.238l.67-1.185.67,1.185a.5.5,0,0,0,.314.238l1.449.363Z"/></g></svg>