<svg xmlns="http://www.w3.org/2000/svg" viewBox="0 0 64 64" x="0px" y="0px"><defs><style>
      .cls-1 {
        stroke-width: 0px;
      }
    </style></defs><path class="cls-1" d="M33.96,54H9c-1.65,0-3-1.35-3-3V7c0-1.65,1.35-3,3-3h32.01c1.65,0,3,1.35,3,3v26.4c0,.55.45,1,1,1s1-.45,1-1V7c0-2.76-2.24-5-5-5H9c-2.76,0-5,2.24-5,5v44c0,2.76,2.24,5,5,5h24.95c.55,0,1-.45,1-1s-.45-1-1-1Z"/><path class="cls-1" d="M57.63,36.59h0c-1.55-1.67-3.62-2.59-5.83-2.59s-4.28.92-5.83,2.59c-.36.39-.68.81-.97,1.25-.28-.45-.61-.87-.97-1.25-1.55-1.67-3.62-2.59-5.83-2.59s-4.28.92-5.83,2.59c-3.16,3.4-3.16,8.92,0,12.32l11.89,12.78c.19.2.46.32.73.32s.54-.12.73-.32l11.89-12.78c3.16-3.39,3.16-8.92,0-12.31ZM56.17,47.54l-11.16,11.99-11.16-11.99c-2.46-2.64-2.46-6.95,0-9.59,1.17-1.26,2.72-1.95,4.36-1.95s3.19.69,4.36,1.95c.66.71,1.16,1.57,1.48,2.55.13.41.52.69.95.69s.82-.28.95-.69c.32-.97.82-1.83,1.48-2.54,1.17-1.26,2.72-1.95,4.36-1.95s3.19.69,4.36,1.95c2.46,2.64,2.46,6.95,0,9.59Z"/><path class="cls-1" d="M18.63,9.22c-.43-.34-1.06-.28-1.41.16l-3.3,4.13-1.21-1.21c-.39-.39-1.02-.39-1.41,0s-.39,1.02,0,1.41l2,2c.19.19.44.29.71.29.02,0,.04,0,.06,0,.28-.02.55-.15.73-.37l4-5c.35-.43.28-1.06-.16-1.41Z"/><path class="cls-1" d="M38.01,12h-16c-.55,0-1,.45-1,1s.45,1,1,1h16c.55,0,1-.45,1-1s-.45-1-1-1Z"/><path class="cls-1" d="M18.63,20.22c-.43-.35-1.06-.28-1.41.16l-3.3,4.13-1.21-1.21c-.39-.39-1.02-.39-1.41,0s-.39,1.02,0,1.41l2,2c.19.19.44.29.71.29.02,0,.04,0,.06,0,.28-.02.55-.15.73-.37l4-5c.35-.43.28-1.06-.16-1.41Z"/><path class="cls-1" d="M39.01,24c0-.55-.45-1-1-1h-16c-.55,0-1,.45-1,1s.45,1,1,1h16c.55,0,1-.45,1-1Z"/><path class="cls-1" d="M18.63,31.22c-.43-.34-1.06-.28-1.41.16l-3.3,4.13-1.21-1.21c-.39-.39-1.02-.39-1.41,0s-.39,1.02,0,1.41l2,2c.19.19.44.29.71.29.02,0,.04,0,.06,0,.28-.02.55-.15.73-.37l4-5c.35-.43.28-1.06-.16-1.41Z"/><path class="cls-1" d="M27,34h-5c-.55,0-1,.45-1,1s.45,1,1,1h5c.55,0,1-.45,1-1s-.45-1-1-1Z"/><path class="cls-1" d="M17.22,42.38l-3.3,4.13-1.21-1.21c-.39-.39-1.02-.39-1.41,0s-.39,1.02,0,1.41l2,2c.19.19.44.29.71.29.02,0,.04,0,.06,0,.28-.02.55-.15.73-.37l4-5c.35-.43.28-1.06-.16-1.41-.43-.34-1.06-.27-1.41.16Z"/><path class="cls-1" d="M27,45h-5c-.55,0-1,.45-1,1s.45,1,1,1h5c.55,0,1-.45,1-1s-.45-1-1-1Z"/></svg>