<?xml version="1.0" encoding="UTF-8"?>
<svg version="1.1" viewBox="0 0 1320 1600" width="1280" height="1280" xmlns="http://www.w3.org/2000/svg">
<path transform="translate(0)" d="m0 0h1320v1600h-1320v-1600z" fill="#FDFDFD"/>
<path transform="translate(206 44.9)" d="m0 0c1.93-0 1.93-0 3.91-0.01h10.8c3.89 0.01 7.79 0 11.7 0 6.83-0.01 13.7-0.01 20.5-0.01 10.2 0 20.3 0 30.5-0.01 19.2-0.01 38.4-0.01 57.6-0.01h44.5c4.27-0.01 8.54-0.01 12.8-0.01h3.22c29.8 0 59.7-0.01 89.5-0.01h3.41 17.1 3.44 6.87c35.6 0 71.3 0 107-0.02 40-0.01 80-0.02 120-0.02h12.8 3.18c16.9 0 33.8-0.01 50.8-0.01 17-0.01 34-0.01 51-0.01 10.1 0.01 20.2 0 30.3-0.01 6.74 0 13.5 0 20.2 0.01 3.84 0 7.69 0 11.5-0.01 4.15-0.01 8.29 0 12.4 0.01 1.18-0.01 2.37-0.01 3.59-0.02 25 0.11 46.8 10 64.8 27.3 19.5 20.4 26.2 44.8 26.1 72.4v4c0.01 3.66 0 7.32 0 11v12 20.9c-0.01 10.4-0.01 20.8-0.01 31.2 0 17.5 0 34.9-0.01 52.4 0 17.3-0.01 34.6-0.01 51.9v3.26 16.4c0 38.7-0.01 77.3-0.02 116-0.01 37.6-0.01 75.1-0.02 113v3.51 34.9c0 23.7-0.01 47.4-0.01 71.1v3.3c-0.01 72.7-0.03 145-0.04 218-1.45 0.48-2.89 0.97-4.34 1.45-0.8 0.27-1.61 0.54-2.43 0.82-2.33 0.76-4.65 1.39-7.03 1.94-0.81 0.19-1.61 0.38-2.44 0.58-0.83 0.19-1.66 0.38-2.51 0.58-8.04 1.95-15.6 4.39-23.2 7.63-2.15 0.89-4.29 1.79-6.44 2.69-0.93 0.39-1.85 0.79-2.81 1.2-2.88 1.16-5.79 2.15-8.75 3.11-2-2-2-2-2.25-4.17v-2.75c0-1.05-0.01-2.1-0.01-3.18 0-1.17 0.01-2.33 0.01-3.53v-3.74c-0.01-3.44 0-6.89 0.01-10.3 0.01-3.75 0-7.49 0-11.2 0-6.57 0-13.1 0.01-19.7 0.02-9.78 0.02-19.6 0.02-29.3 0-16.5 0.01-32.9 0.03-49.4 0.01-16.3 0.02-32.7 0.03-49v-3.08-15.5c0.01-36.6 0.03-73.2 0.05-110 0-2.21 0-4.43 0.01-6.64v-3.33c0-5.55 0-11.1 0.01-16.7v-3.33c0.02-25.4 0.03-50.9 0.04-76.4v-3.29c0.02-24.9 0.03-49.8 0.04-74.7v-3.19c0-9.46 0.01-18.9 0.01-28.4 0.01-23.5 0.02-47 0.03-70.5 0.02-16.4 0.03-32.8 0.03-49.3 0.01-8.87 0.01-17.7 0.02-26.6 0.02-19.2 0.01-38.4-0.07-57.6-0.01-3.53-0.03-7.07-0.03-10.6-0.02-8.16-0.07-16.3-0.15-24.5-0.02-2.46-0.04-4.92-0.04-7.38-0.01-3.34-0.05-6.68-0.1-10 0.01-0.96 0.01-1.92 0.01-2.9-0.19-9.05-3.87-16.8-9.98-23.5-6.27-5.32-14.2-6.6-22.2-6.6h-3.25-3.55-3.8c-3.49-0.01-6.98 0-10.5 0h-11.4c-6.66-0.01-13.3-0.01-20 0-9.9 0-19.8 0-29.7-0.01h-53c-15.5 0.01-30.9 0.01-46.4 0h-3.11-12.5c-39.1 0-78.1 0-117 0.01h-104c-39-0.01-78-0.01-117-0.01h-12.5c-1.02 0-2.05 0-3.1 0.01-15.5 0-30.9-0.01-46.4-0.01-17.6 0-35.2 0-52.7 0.01-9.84 0-19.7 0-29.5-0.01-6.57 0-13.1 0-19.7 0.01h-11.2c-4.04-0.01-8.07 0-12.1 0h-3.51c-13.1-0.25-13.1-0.25-25.2 4-0.9 0.52-1.79 1.03-2.71 1.56-2.35 1.46-2.35 1.46-4.04 3.26-1.31 1.31-1.31 1.31-3.31 1.31-0.27 0.68-0.54 1.36-0.82 2.06-0.83 2.07-1.75 4.11-2.73 6.12-1.67 3.92-1.92 7.68-1.96 11.9-0.02 0.78-0.04 1.55-0.05 2.36-0.06 2.57-0.09 5.14-0.12 7.71-0.03 1.84-0.07 3.68-0.1 5.51-0.34 19.6-0.36 39.1-0.35 58.7v16c-0.01 9.33-0.01 18.7-0.01 28 0.01 13.9 0.01 27.8 0 41.6v70.1 69.4 4.38 17.6 49.1 2.26 71.1 2.33c0 12.5 0.01 24.9 0.01 37.4v148c0 12.5-0.01 25-0.01 37.4v2.33 71.1 2.25 49 17.6 4.36 69.4 71.8c0.01 13.8 0.01 27.6 0 41.3 0 9.22 0 18.4 0.01 27.7v15.7c-0.03 26.4-0.03 26.4 0.45 52.8 0.06 1.93 0.11 3.85 0.15 5.78 0.3 8.84 0.81 16.4 6.53 23.5 7.61 7.1 14.2 10.2 24.5 10.1 1.15-0.01 1.15-0.01 2.33-0.01 2.58-0.01 5.17-0.03 7.76-0.04 1.86-0.01 3.73-0.02 5.6-0.03 4.06-0.01 8.13-0.03 12.2-0.06 6.61-0.03 13.2-0.06 19.8-0.09 1.7-0.01 1.7-0.01 3.45-0.01l7.02-0.03c3.64-0.02 7.27-0.03 10.9-0.05 17.7-0.07 35.4-0.12 53-0.15 1.28-0.01 2.55-0.01 3.87-0.01 11.9-0.02 23.7-0.04 35.6-0.06 8.14-0.01 16.3-0.02 24.4-0.04h2.05c21.9-0.04 43.8-0.13 65.7-0.25 23.2-0.13 46.3-0.19 69.5-0.18 13.9 0 27.7-0.05 41.6-0.17 9.51-0.08 19-0.09 28.5-0.05 5.49 0.02 11 0.02 16.4-0.07 34.7-0.52 34.7-0.52 42 6.12 3.04 3.67 4.99 7.48 6.69 11.9 1.55 3.51 3.85 5.97 6.4 8.81 2.74 3.21 5.39 6.41 7.88 9.82 2.31 3.15 4.88 5.83 7.69 8.56 1.33 1.67 2.66 3.33 4 5 0.8 0.8 1.61 1.61 2.43 2.44 2.75 2.74 5.18 5.5 7.57 8.56v2l2 1c-48.2-0.05-96.4-0.09-145-0.16h-2.16c-15.5-0.03-31-0.05-46.6-0.07l-22.8-0.03c-0.76 0-1.52-0.01-2.3-0.01-24.5-0.03-49-0.06-73.6-0.08-25.2-0.02-50.4-0.05-75.6-0.1-3.57 0-7.13-0.01-10.7-0.01-0.7-0.01-1.4-0.01-2.12-0.01-11.3-0.02-22.6-0.03-33.8-0.03-11.4 0-22.7-0.02-34-0.05-6.14-0.01-12.3-0.02-18.4-0.02-5.63 0.01-11.3 0-16.9-0.02-2.03-0.01-4.06-0.01-6.09 0-14.2 0.03-29.1-0.2-42.2-6.41-1.35-0.62-1.35-0.62-2.72-1.24-16-7.61-28.8-17.6-39.3-31.8-0.52-0.68-1.04-1.36-1.57-2.06-12.9-17.9-14.7-39.6-14.7-61 0-1.91 0-3.83-0.01-5.75-0.01-5.26 0-10.5 0-15.8 0.01-5.72 0-11.4 0-17.2-0.01-10-0.01-20.1-0.01-30.1v-32.3-2.06c-0.01-2.77-0.01-5.55-0.01-8.32-0.01-28.1-0.02-56.2-0.02-84.3 0.01-3.88 0.01-7.77 0.01-11.6v-2.34c0-17.1-0.01-34.2-0.01-51.3v-11.7-4.7-2.35-4.72c-0.01-44.6-0.02-89.2-0.01-134v-2.5-27.6-2.52-10.1c0.01-53.2 0-106-0.02-160 0-13.4-0.01-26.8-0.01-40.2v-2.5c-0.01-25.4-0.02-50.8-0.02-76.3v-2.42-52.6-18.8-4.68c0.01-24.8 0-49.7-0.01-74.6-0.01-25.7-0.01-51.5 0-77.2v-8.29-2.06c0.01-11.4 0-22.8-0.01-34.1-0.01-9.91-0.01-19.8 0.01-29.7 0-5.64 0-11.3-0.01-16.9-0.01-5.14-0.01-10.3 0.01-15.4 0-1.85 0-3.69-0.01-5.53-0.06-16.2 1.05-32 7.39-47.1 0.67-2 1.35-4 2-6h2c0.09-0.72 0.18-1.44 0.27-2.18 1.38-5.39 5.38-9.48 8.73-13.8 0.7-0.95 1.41-1.89 2.13-2.87 1.02-1.33 1.02-1.33 2.05-2.69 0.62-0.81 1.23-1.62 1.86-2.45 2.19-2.23 4.08-2.87 6.96-3.99 0.49-1.49 0.49-1.49 1-3 1.62-1.29 1.62-1.29 3.72-2.56 1.15-0.7 1.15-0.7 2.32-1.42 0.81-0.48 1.62-0.96 2.46-1.46 1.17-0.72 1.17-0.72 2.36-1.45 7.43-4.48 14.9-7.96 23.3-10.3 1.14-0.32 2.28-0.65 3.45-0.98 7.77-1.88 15.2-1.97 23.1-1.96z" fill="#4A4D4E"/>
<path transform="translate(894 993)" d="m0 0c6.17 5.91 11.3 12 16 19.2 0.83 1.25 1.67 2.5 2.5 3.75 2.13 3.17 4.24 6.34 6.35 9.52 1.11 1.68 2.23 3.35 3.36 5.01 1.79 2.72 1.79 2.72 3.29 5.47 1.63 2.45 2.79 3.23 5.5 4.25 0.58-1.03 1.15-2.06 1.75-3.12 1.95-3.41 3.93-6.71 6.25-9.88h2c0.1-0.55 0.2-1.11 0.31-1.68 2.73-9.2 10.6-17.1 16.7-24.3 0.71-0.93 1.41-1.86 2.14-2.82 0.62-0.72 1.23-1.44 1.86-2.18h2c0.21-0.56 0.42-1.13 0.64-1.72 1.86-3.11 4.24-4.66 7.17-6.78 4.37-3.15 4.37-3.15 8.58-6.53 2.74-2.06 5.46-3.5 8.54-4.98 1.94-0.93 3.85-1.91 5.75-2.92 14.4-7.52 29.4-12.7 45.3-16.1 0.68-0.15 1.36-0.3 2.06-0.45 27.9-5.97 61.3-5.15 87.9 5.45 1.73 0.59 3.46 1.17 5.19 1.75 9.94 3.62 19.3 9.01 27.8 15.2 1.27 0.94 1.27 0.94 2.57 1.89 12.7 9.83 21.8 22.1 29.4 36.1 0.56 1.02 1.13 2.04 1.71 3.09 25.5 48.4 17.2 114 2.15 164-3.57 11.5-8.3 22.1-13.9 32.8-1 2-2.01 4-3 6h-2c-0.12 0.58-0.25 1.16-0.37 1.75-2.03 7.28-7.15 13.5-11.6 19.5-1.88 2.55-3.68 5.14-5.47 7.75-5.94 8.52-12.8 16.3-19.5 24.2-2.84 3.35-5.58 6.75-8.27 10.2-2.77 3.51-5.63 6.35-9.1 9.14-1.76 1.52-3.18 3.13-4.65 4.92-2.54 3.07-5.29 5.58-8.35 8.11-2.37 2-4.49 4.18-6.65 6.39-4.34 4.43-8.7 8.71-13.5 12.7-1.71 1.44-1.71 1.44-3.84 3.7-1.69 1.62-1.69 1.62-3.69 1.62l-1 3c-1.5 1.55-1.5 1.55-3.44 3.19-1.08 0.92-1.08 0.92-2.19 1.86-6.32 5.2-12.7 10.3-19.3 15.2-2.21 1.76-2.21 1.76-4.43 4.1-3.01 2.97-6.2 5.5-9.55 8.07-3.8 2.95-7.57 5.88-11.2 9.06-2.94 2.5-2.94 2.5-5.25 3.87-3.09 1.88-5.85 4.02-8.69 6.26-5.45 4.24-11 8.23-16.7 12.1-3.21 2.21-6.37 4.47-9.52 6.75-6.36 4.58-12.8 9.02-19.3 13.4-1.14 0.78-2.29 1.57-3.44 2.36-1.61 1.11-3.24 2.22-4.86 3.33-0.95 0.64-1.89 1.29-2.87 1.96-2.3 1.4-2.3 1.4-4.3 1.4v2c-0.7 0.37-1.4 0.73-2.13 1.11-4.58 2.42-8.97 4.82-13.1 8.02-5.05 3.93-10.2 7.62-16.8 6.87-2.35-1.27-2.35-1.27-4.63-2.93-2.56-1.85-4.35-3.06-7.37-4.07v-2c-0.71-0.25-1.42-0.51-2.15-0.78-3.05-1.3-5.64-2.9-8.41-4.72-3.09-2.02-6.1-3.93-9.44-5.5v-2c-0.99-0.31-0.99-0.31-2-0.62-3.39-1.56-6.02-3.54-8.94-5.84-2.27-1.69-4.63-3.09-7.06-4.54-3.38-2.27-6.68-4.64-10-7-1.07-0.75-2.14-1.51-3.24-2.29-12.2-8.7-24.3-17.6-36.3-26.6-2.84-2.15-5.68-4.2-8.67-6.15-2.61-1.79-4.56-3.66-6.78-5.91-2.62-1.98-5.26-3.91-7.93-5.82-1.39-1.01-2.74-2.09-4.07-3.18v-2c-0.52-0.21-1.04-0.42-1.58-0.64-3.43-1.92-6.22-4.46-9.17-7.04-0.94-0.82-0.94-0.82-1.9-1.65-1.79-1.55-3.57-3.11-5.35-4.67-0.77-0.67-1.55-1.34-2.35-2.03-4.45-3.87-8.84-7.83-13.2-11.8-2.08-1.86-4.18-3.68-6.31-5.49-5.17-4.5-9.93-9.41-14.7-14.3-3.21-3.24-6.44-6.46-9.69-9.67-12.2-12.1-12.2-12.1-17.7-18.7-0.8-0.94-1.59-1.88-2.42-2.85-6.58-7.88-6.58-7.88-6.58-10.2-0.61-0.26-1.21-0.52-1.83-0.79-2.3-1.28-3.33-2.35-4.87-4.44-0.48-0.65-0.97-1.3-1.46-1.97-0.51-0.7-1.01-1.39-1.53-2.11-0.53-0.72-1.06-1.44-1.6-2.18-1.58-2.16-3.15-4.33-4.71-6.51-0.43-0.6-0.86-1.19-1.31-1.81-7.77-10.9-15-22.1-20.7-34.2-0.4-0.82-0.8-1.65-1.2-2.5-10.4-22.2-15.7-45.4-19.8-69.5-0.25-1.43-0.25-1.43-0.51-2.89-4.66-27.4-4.64-57 1.51-84.1 0.2-0.89 0.41-1.79 0.61-2.72 2.1-8.97 4.38-18 8.39-26.3 0.54-1.13 1.08-2.27 1.64-3.43 4.38-8.84 9.74-16.5 16.1-24 0.87-1.03 1.72-2.08 2.57-3.13 13.4-16.6 36.2-28.7 56.7-33.4 1.01-0.35 2.02-0.7 3.06-1.06 5.55-1.77 11.1-2.94 16.9-2.94l1-2c0.49 0.5 0.49 0.5 1 1 1.67-0.3 3.34-0.64 5-1 44.6-5.94 96.8 7.69 130 38.8z" fill="#4B4E4F"/>
<path transform="translate(111,211)" d="m0 0h4c1.88 9.9 2.28 19.6 2.23 29.6v4.96c0 4.53-0.01 9.06-0.02 13.6-0.01 4.93-0.01 9.87-0.01 14.8-0.01 8.65-0.02 17.3-0.04 25.9-0.02 12.8-0.04 25.7-0.05 38.6-0.02 21.6-0.05 43.2-0.08 64.9-0.04 21.4-0.07 42.8-0.09 64.2v2.02c-0.01 6.07-0.02 12.2-0.03 18.2-0.01 15.1-0.03 30.2-0.05 45.3v2.09c-0.04 33.4-0.09 66.9-0.14 100-0.01 11.6-0.03 23.2-0.05 34.8v2.18c-0.05 33.5-0.09 66.9-0.13 100 0 2.17-0.01 4.34-0.01 6.52-0.02 14.4-0.03 28.8-0.05 43.2-0.04 28.7-0.07 57.3-0.11 86v4.09c-0.11 89.9-0.24 180-0.37 272h-1l-1-7-2 3c-1.12-3.59-1.12-6.94-1.12-10.7-0.01-0.68-0.01-1.35-0.01-2.05 0-2.28 0-4.56 0.01-6.84 0-1.65 0-3.3-0.01-4.95 0-4.57 0-9.14 0.01-13.7v-14.9-26.1c0.01-12.9 0.01-25.9 0.01-38.8-0.01-21.8 0-43.5 0-65.3 0.01-21.6 0.01-43.1 0.02-64.7v-2.02-18.3-45.6-2.09c0-33.7 0.01-67.3 0.01-101 0.01-11.7 0.01-23.4 0.01-35.1v-2.19c0.01-33.7 0.01-67.4 0.01-101 0.01-2.19 0.01-4.38 0.01-6.56v-43.5c0-28.8 0-57.6 0.01-86.5v-4.12c0.01-88.6 0.02-177 0.04-274z" fill="#3F3F3F"/>
<path transform="translate(975,200)" d="m0 0c3.81 3.74 4.47 6.38 4.53 11.5-0.01 0.85-0.02 1.71-0.04 2.59 0.01 0.92 0.01 1.84 0.02 2.79 0.01 3.11-0.01 6.21-0.02 9.32 0 2.24 0 4.48 0.01 6.73 0.01 6.18 0 12.4-0.02 18.5-0.01 5.98-0.01 12 0 17.9 0 12.2-0.01 24.5-0.03 36.8-0.02 12.2-0.03 24.4-0.03 36.6v2.3 9.26c-0.01 28.2-0.03 56.4-0.06 84.5-0.04 26.4-0.06 52.8-0.06 79.2-0.01 0.81-0.01 1.61-0.01 2.45v12.2 2.44 4.86c-0.01 26.2-0.02 52.3-0.04 78.5-0.01 7.6-0.01 15.2-0.02 22.8-0.01 20.1-0.02 40.2-0.05 60.3 0 0.67 0 1.34-0.01 2.03-0.06 47.2-0.42 94.3-1.17 141h-1c-0.12-0.76-0.25-1.53-0.38-2.31-0.5-2.89-0.5-2.89-2.62-5.69-0.25-2.05-0.25-2.05-0.25-4.45 0-0.92-0.01-1.84-0.01-2.78 0-1.01 0.01-2.03 0.01-3.07 0-1.08 0-2.15-0.01-3.26 0-3.65 0-7.29 0.01-10.9v-7.87c-0.01-5.73-0.01-11.5 0-17.2 0.01-8.52 0.01-17 0-25.6 0-14.3 0-28.6 0.01-43 0.01-14.2 0.01-28.4 0.01-42.6v-2.67-10.7c0-33.6 0.01-67.2 0.03-101 0.01-29.9 0.02-59.7 0.01-89.6v-5.75-2.88-14.3-2.85c0-24.9 0.01-49.8 0.01-74.8 0-0.89 0.01-1.78 0.01-2.69v-10.7-37.2c0-16 0.01-32 0.02-48v-25.4c0-6.3 0.01-12.6 0.01-18.9 0.01-2.56 0.01-5.12 0-7.69 0-3.46 0.01-6.92 0.01-10.4v-3.08-2.77-2.4c0.13-1.8 0.13-1.8 1.13-2.8z" fill="#3F3F3F"/>
<path transform="translate(712,1268)" d="m0 0 1 2c0.99 0.33 1.98 0.66 3 1 5 5.47 5 5.47 5 8 0.99 0.33 1.98 0.66 3 1 1.65 1.67 1.65 1.67 3.38 3.75 3.55 4.19 7.33 8.02 11.3 11.8 2.31 2.44 2.31 2.44 3.31 4.63 0.86 2.04 0.86 2.04 3.19 2.56 4.38 1.95 6.78 5.62 9.81 9.25 3.83 4.03 7.98 7.62 12.2 11.2 0.59 0.58 1.18 1.17 1.79 1.77v2c0.56 0.24 1.12 0.48 1.7 0.73 2.75 1.52 4.76 3.37 7.05 5.52 3.78 3.49 7.63 6.63 11.8 9.56 0.46 0.39 0.92 0.78 1.4 1.19v2c0.54 0.25 1.07 0.49 1.62 0.75 5.25 2.76 9.21 6.08 13.4 10.2 0.83 0.49 1.65 0.99 2.5 1.5 2.4 1.44 4.03 3.04 5.97 5.02 3.01 2.91 6.29 5.48 9.53 8.1 0.7 0.58 1.4 1.15 2.12 1.74 2.89 2.35 5.66 4.51 8.88 6.41 0.66 0.41 1.32 0.81 2 1.23v2l5 2v2c1.18 0.46 1.18 0.46 2.38 0.94 2.62 1.06 2.62 1.06 4.62 2.06v2c0.74 0.25 1.49 0.49 2.25 0.75 2.95 1.34 4.6 2.86 6.75 5.25l-1 2c-0.7-0.53-1.41-1.07-2.13-1.62-5.55-4.18-11.1-8.3-16.8-12.3-9.84-6.98-19.3-14.4-28.6-22.1-2.17-1.74-4.36-3.35-6.65-4.92-0.93-0.68-1.85-1.36-2.81-2.06v-2c-0.78-0.32-0.78-0.32-1.58-0.64-3.43-1.93-6.22-4.46-9.17-7.05-0.63-0.54-1.25-1.08-1.9-1.64-1.78-1.56-3.57-3.11-5.35-4.67-0.77-0.67-1.55-1.34-2.34-2.03-4.46-3.88-8.85-7.83-13.2-11.8-2.08-1.86-4.18-3.68-6.31-5.49-5.17-4.5-9.93-9.42-14.7-14.3-3.2-3.25-6.44-6.46-9.68-9.67-12.8-12.7-12.8-12.7-17.7-18.7-0.58-0.71-1.15-1.42-1.75-2.15-4.25-5.44-4.25-5.44-4.25-8.85z" fill="#3F3F3F"/>
<path transform="translate(147,1312)" d="m0 0 4 1v2c1.08 0.43 1.08 0.43 2.19 0.88 3.9 1.56 3.9 1.56 7.81 3.12v2c0.68 0.12 1.36 0.25 2.06 0.38 3.37 0.71 6.64 1.65 9.94 2.62v2c5.94 0.99 5.94 0.99 12 2l-1 2c-3.91 1.3-6.39 0.17-10.1-1.12-0.68-0.24-1.35-0.47-2.05-0.7-5.3-1.87-10.1-4.15-14.8-7.18-0.83-0.51-1.66-1.02-2.51-1.54-6.35-4.03-6.35-4.03-7.49-7.46z" fill="#3F3F3F"/>
<path transform="translate(168,732)" d="m0 0c0.99 0.33 1.98 0.66 3 1v15l-4-2c0.16-1.01 0.33-2.02 0.5-3.06 0.47-3.7 0.58-7.22 0.5-10.9z" fill="#3F3F3F"/>
<path transform="translate(843,1387)" d="m0 0 6 3v2c0.74 0.25 1.49 0.49 2.25 0.75 2.95 1.34 4.6 2.86 6.75 5.25l-1 2c-1.97-1.41-3.92-2.82-5.88-4.25-0.55-0.4-1.11-0.79-1.68-1.2-3.02-2.22-5.15-3.98-6.44-7.55z" fill="#414141"/>
<path transform="translate(172,1326)" d="m0 0c4.38 0.52 8.69 1.06 13 2l-1 2c-3.48 1.16-4.34 0.77-7.69-0.44-0.81-0.28-1.61-0.57-2.45-0.87-0.61-0.23-1.23-0.45-1.86-0.69v-2z" fill="#444"/>
</svg>
