<svg xmlns="http://www.w3.org/2000/svg" xmlns:xlink="http://www.w3.org/1999/xlink" version="1.1" x="0px" y="0px" viewBox="0 0 100 100" style="enable-background:new 0 0 100 100;" xml:space="preserve"><path d="M72.4,60.9l-0.6,2.3H29.1l-6.6-23.4h27.8c-0.1-0.9-0.1-1.7-0.1-2.6c0-0.6,0-1.2,0.1-1.8H21.5c-0.1,0-0.1,0-0.2,0l-2.7-9.6  c-0.6-2.5-2.4-4.2-4.5-4.2h-7c-1,0-2,0.9-2.1,2.2c-0.1,1.5,0.8,2.8,2,2.8h7.1c0.3,0,0.6,0.3,0.7,0.7l10.7,37.9  c0.4,1.5,1.5,2.5,2.8,2.5c9,0,44,0,44,0c1.2,0,2.3-1,2.7-2.4l1.2-4.4C75.5,61,74.7,61,74,61C73.4,61,72.9,61,72.4,60.9z"/><path d="M35.9,70.9c-3.6,0-6.5,2.9-6.5,6.5s2.9,6.5,6.5,6.5s6.5-2.9,6.5-6.5S39.5,70.9,35.9,70.9z M35.9,79.7c-1.3,0-2.3-1-2.3-2.3  s1-2.3,2.3-2.3s2.3,1,2.3,2.3C38.2,78.6,37.2,79.7,35.9,79.7z"/><path d="M63.7,70.9c-3.6,0-6.5,2.9-6.5,6.5s2.9,6.5,6.5,6.5c3.6,0,6.5-2.9,6.5-6.5S67.2,70.9,63.7,70.9z M63.7,79.7  c-1.3,0-2.3-1-2.3-2.3s1-2.3,2.3-2.3s2.3,1,2.3,2.3C65.9,78.6,64.9,79.7,63.7,79.7z"/><path d="M73.7,16.1c-11.5,0-21,9.5-21,21s9.5,21,21,21s21-9.5,21-21S85.2,16.1,73.7,16.1z M57.3,37c0-8.9,7.4-16.3,16.3-16.3  c3.6,0,7.2,1.2,9.9,3.3c-0.3,0.3-0.7,0.6-1.1,1L61.5,45.9c-0.3,0.3-0.5,0.6-0.9,1C58.5,44.3,57.3,40.8,57.3,37z M73.7,53.4  c-3.6,0-7.3-1.2-10-3.4c0.3-0.2,0.6-0.5,1-0.9l20.9-20.8c0.3-0.3,0.7-0.7,1-1.2c2.2,2.8,3.4,6.2,3.4,10C89.9,46,82.5,53.4,73.7,53.4  z"/></svg>