<?xml version="1.0" encoding="utf-8"?>
<!-- Svg Vector Icons : http://www.onlinewebfonts.com/icon -->
<!DOCTYPE svg PUBLIC "-//W3C//DTD SVG 1.1//EN" "http://www.w3.org/Graphics/SVG/1.1/DTD/svg11.dtd">
<svg version="1.1" xmlns="http://www.w3.org/2000/svg" xmlns:xlink="http://www.w3.org/1999/xlink" x="0px" y="0px" viewBox="0 0 256 256" enable-background="new 0 0 256 256" xml:space="preserve">
<metadata> Svg Vector Icons : http://www.onlinewebfonts.com/icon </metadata>
<g><g><g><path fill="" d="M117.2,10.7c-20.9,3.5-39.5,18.5-47.5,38.4c-4,10-4.6,14.5-4.6,35.2v16.4l-11.7,0.1c-11.2,0.1-11.8,0.2-13.9,1.2c-3,1.6-5.9,4.5-7.2,7.4l-1.1,2.4v61.5v61.5l1.1,2.5c1.4,3.2,4.8,6.3,8.2,7.7l2.7,1H128h84.6l2.7-1c3.4-1.3,6.8-4.4,8.2-7.7l1.1-2.5v-61.5v-61.5l-1.1-2.4c-1.3-2.8-4.2-5.8-7.2-7.4c-2-1-2.6-1.1-13.8-1.2l-11.7-0.1V84.3c0-20.7-0.6-25.2-4.6-35.2c-8.1-20.1-26.6-35-47.9-38.5C132.9,9.8,122.6,9.8,117.2,10.7z M138.6,20.6c17.7,3.7,32.3,15.9,38.8,32.5c3.2,8.2,4,14.9,4,34.1v13.6H128H74.5V87.1c0-14.9,0.5-22.1,1.9-27.5c3.8-15,13.5-27.2,27.3-34.2c6-3.1,10.9-4.6,18.8-5.8C125.4,19.2,134.9,19.8,138.6,20.6z M213.7,112l1.4,1.5v59.8c0,59.5,0,59.8-0.9,61c-0.6,0.7-1.8,1.5-2.7,1.8c-2.4,0.7-164.3,0.7-166.7,0c-0.9-0.3-2.2-1-2.7-1.8c-0.9-1.2-0.9-1.5-0.9-60.9v-59.7l1-1.3c0.6-0.7,1.5-1.5,2-1.7c0.5-0.2,38.7-0.4,84.6-0.3l83.7,0.1L213.7,112z"/><path fill="#000000" d="M66.5,164.2c-7.2,2.9-8.4,13-2,17c2.7,1.8,4.9,2.1,7.6,1.4c9-2.4,9.9-14.7,1.4-18.3C71.5,163.6,68.3,163.5,66.5,164.2z"/><path fill="#000000" d="M105.1,164.3c-4.1,1.8-6.2,5.4-5.8,9.9c0.3,3.5,1.9,6,5.2,7.6c3.1,1.5,5.2,1.6,8.3,0.1c7.5-3.5,7.3-14.3-0.4-17.6C110.2,163.5,107,163.5,105.1,164.3z"/><path fill="#000000" d="M143.6,164.4c-7.6,3.4-7.8,14.1-0.3,17.6c3.1,1.5,5.2,1.4,8.3-0.1c3.4-1.7,4.9-4.1,5.2-7.9c0.2-3.6-1.1-6.5-4-8.5C150.3,163.7,146.2,163.3,143.6,164.4z"/><path fill="#000000" d="M182.4,164.4c-8.4,3.8-7.5,15.9,1.5,18.3c7.9,2.1,14.4-6.4,10.7-13.8C192.4,164.6,186.7,162.5,182.4,164.4z"/></g></g></g>
</svg>