<?xml version="1.0" encoding="utf-8"?>
<!-- Svg Vector Icons : http://www.onlinewebfonts.com/icon -->
<!DOCTYPE svg PUBLIC "-//W3C//DTD SVG 1.1//EN" "http://www.w3.org/Graphics/SVG/1.1/DTD/svg11.dtd">
<svg version="1.1" xmlns="http://www.w3.org/2000/svg" xmlns:xlink="http://www.w3.org/1999/xlink" x="0px" y="0px" viewBox="0 0 1000 1000" enable-background="new 0 0 1000 1000" xml:space="preserve">
<metadata> Svg Vector Icons : http://www.onlinewebfonts.com/icon </metadata>
<g><g transform="translate(0.000000,511.000000) scale(0.100000,-0.100000)"><path d="M2949.1,4204.9L910.2,3399.7l-18.3-115c-44.4-303.2-78.4-1116.2-62.7-1505.7c115-2836.2,1356.7-4893.4,3876.6-6409.6c146.4-86.3,279.7-159.5,292.8-159.5c41.8,0,454.9,248.3,799.9,481c1944.8,1309.6,3058.4,3097.6,3317.2,5327.4c81,679.6,78.4,1678.2-5.2,2253.3l-18.3,125.5l-1986.7,807.7c-1092.7,444.4-2015.4,807.7-2052,805.1C5016.8,5010,4070.5,4646.6,2949.1,4204.9z M8098.7,2555.4l235.3-235.3L6203.6,189.7C5032.5-981.3,4062.7-1940.7,4047-1940.7c-15.7,0-407.8,381.6-875.7,849.6l-849.6,849.6L2564.8-1.1L2805.3,242l614.3-614.3l614.3-614.3L5923.9,903.3c1037.8,1037.8,1900.4,1887.3,1913.5,1887.3C7853,2790.7,7970.6,2683.5,8098.7,2555.4z"/></g></g>
</svg>