<svg
      version="1.1"
      id="Warstwa_1"
      xmlns="http://www.w3.org/2000/svg"
      xmlns:xlink="http://www.w3.org/1999/xlink"
      x="0px"
      y="0px"
      viewBox="0 0 24 24"
      enable-background="new 0 0 24 24"
      xml:space="preserve"
    >
      <path
        id="search"
        fill-rule="evenodd"
        clip-rule="evenodd"
        d="M22.8,21l-4.5-4.6c1.4-1.8,2.2-4.1,2.2-6.4,C20.3,4.4,15.7-0.1,10,0S-0.1,4.8,0,10.4c0.1,5.6,4.6,10,10.2,10c2.3,0,4.5-0.8,6.3-2.2l4.5,4.6c0.1,0.1,0.3,0.2,0.4,0.2,c0.2,0,0.3-0.1,0.5-0.2l0.9-0.9C23,21.7,23,21.3,22.8,21L22.8,21L22.8,21z M10.2,2.2c4.3-0.1,7.9,3.4,7.9,7.7s-3.4,7.9-7.7,7.9,c-4.3,0.1-7.9-3.4-7.9-7.7c0,0,0-0.1,0-0.1C2.5,5.8,5.9,2.3,10.2,2.2C10.2,2.2,10.2,2.2,10.2,2.2L10.2,2.2z"
      ></path>
    </svg>